<?xml version="1.0" encoding="UTF-8"?>
<svg xmlns="http://www.w3.org/2000/svg" xmlns:xlink="http://www.w3.org/1999/xlink" width="48pt" height="48pt" viewBox="0 0 48 48" version="1.1">
<g id="surface1">
<path style=" stroke:none;fill-rule:nonzero;fill:rgb(25.098039%,74.117647%,100%);fill-opacity:1;" d="M 31.3125 3.75 C 31.3125 2.921875 30.640625 2.25 29.8125 2.25 L 19.125 2.25 C 18.296875 2.25 17.625 2.921875 17.625 3.75 L 17.625 15.390625 C 17.625 16.21875 18.296875 16.890625 19.125 16.890625 L 29.8125 16.890625 C 30.640625 16.890625 31.3125 16.21875 31.3125 15.390625 Z M 22.03125 9.234375 C 21.054688 8.410156 20.695312 7.066406 21.132812 5.867188 C 21.570312 4.664062 22.714844 3.867188 23.992188 3.867188 C 25.269531 3.867188 26.410156 4.664062 26.847656 5.867188 C 27.285156 7.066406 26.925781 8.410156 25.949219 9.234375 L 25.820312 9.34375 L 25.980469 9.394531 C 27.796875 9.964844 29.03125 11.652344 29.027344 13.554688 L 29.027344 14.898438 C 29.027344 15.105469 28.859375 15.273438 28.652344 15.273438 L 19.335938 15.273438 C 19.128906 15.273438 18.960938 15.105469 18.960938 14.898438 L 18.960938 13.554688 C 18.957031 11.652344 20.191406 9.964844 22.007812 9.394531 L 22.167969 9.34375 Z M 22.03125 9.234375 "/>
<path style=" stroke:none;fill-rule:nonzero;fill:rgb(93.72549%,98.039216%,99.607843%);fill-opacity:1;" d="M 23.75 9.1875 L 24.246094 9.1875 C 25.457031 9.054688 26.351562 8 26.285156 6.785156 C 26.222656 5.570312 25.214844 4.617188 24 4.617188 C 22.78125 4.617188 21.777344 5.570312 21.710938 6.785156 C 21.644531 8 22.539062 9.054688 23.75 9.1875 Z M 23.75 9.1875 "/>
<path style=" stroke:none;fill-rule:nonzero;fill:rgb(93.72549%,98.039216%,99.607843%);fill-opacity:1;" d="M 19.710938 13.554688 L 19.710938 14.523438 L 28.285156 14.523438 L 28.285156 13.554688 C 28.285156 11.558594 26.667969 9.941406 24.667969 9.9375 L 23.328125 9.9375 C 21.332031 9.941406 19.714844 11.558594 19.710938 13.554688 Z M 19.710938 13.554688 "/>
<path style=" stroke:none;fill-rule:nonzero;fill:rgb(93.72549%,98.039216%,99.607843%);fill-opacity:1;" d="M 34.140625 42.414062 L 34.140625 43.378906 L 42.714844 43.378906 L 42.714844 42.414062 C 42.714844 40.417969 41.09375 38.800781 39.097656 38.796875 L 37.757812 38.796875 C 35.761719 38.800781 34.144531 40.417969 34.140625 42.414062 Z M 34.140625 42.414062 "/>
<path style=" stroke:none;fill-rule:nonzero;fill:rgb(100%,86.666667%,0%);fill-opacity:1;" d="M 44.25 31.109375 L 33.546875 31.109375 C 32.71875 31.109375 32.046875 31.78125 32.046875 32.609375 L 32.046875 44.25 C 32.046875 45.078125 32.71875 45.75 33.546875 45.75 L 44.25 45.75 C 45.078125 45.75 45.75 45.078125 45.75 44.25 L 45.75 32.609375 C 45.75 31.78125 45.078125 31.109375 44.25 31.109375 Z M 35.386719 35.769531 C 35.386719 34.089844 36.75 32.726562 38.429688 32.726562 C 40.109375 32.726562 41.46875 34.089844 41.46875 35.769531 C 41.46875 36.695312 41.09375 37.496094 40.257812 38.207031 C 42.394531 38.886719 43.464844 40.617188 43.464844 42.421875 L 43.464844 43.761719 C 43.464844 43.96875 43.296875 44.136719 43.089844 44.136719 L 33.765625 44.136719 C 33.558594 44.136719 33.390625 43.96875 33.390625 43.761719 L 33.390625 42.421875 C 33.390625 40.605469 34.46875 38.882812 36.601562 38.207031 C 35.765625 37.5 35.386719 36.695312 35.386719 35.769531 Z M 35.386719 35.769531 "/>
<path style=" stroke:none;fill-rule:nonzero;fill:rgb(93.72549%,98.039216%,99.607843%);fill-opacity:1;" d="M 38.179688 38.046875 L 38.675781 38.046875 C 39.886719 37.914062 40.78125 36.859375 40.71875 35.644531 C 40.652344 34.429688 39.644531 33.476562 38.429688 33.476562 C 37.210938 33.476562 36.207031 34.429688 36.140625 35.644531 C 36.074219 36.859375 36.972656 37.914062 38.179688 38.046875 Z M 38.179688 38.046875 "/>
<path style=" stroke:none;fill-rule:nonzero;fill:rgb(93.72549%,98.039216%,99.607843%);fill-opacity:1;" d="M 5.285156 42.414062 L 5.285156 43.378906 L 13.859375 43.378906 L 13.859375 42.414062 C 13.855469 40.417969 12.238281 38.800781 10.242188 38.796875 L 8.902344 38.796875 C 6.90625 38.800781 5.285156 40.417969 5.285156 42.414062 Z M 5.285156 42.414062 "/>
<path style=" stroke:none;fill-rule:nonzero;fill:rgb(92.156863%,33.72549%,22.352941%);fill-opacity:1;" d="M 15.390625 31.109375 L 4.6875 31.109375 C 3.859375 31.109375 3.1875 31.78125 3.1875 32.609375 L 3.1875 44.25 C 3.1875 45.078125 3.859375 45.75 4.6875 45.75 L 15.390625 45.75 C 16.21875 45.75 16.890625 45.078125 16.890625 44.25 L 16.890625 32.609375 C 16.890625 31.78125 16.21875 31.109375 15.390625 31.109375 Z M 7.609375 38.09375 C 6.632812 37.269531 6.273438 35.921875 6.714844 34.722656 C 7.152344 33.523438 8.292969 32.726562 9.570312 32.726562 C 10.847656 32.726562 11.988281 33.523438 12.425781 34.722656 C 12.863281 35.921875 12.507812 37.269531 11.53125 38.09375 L 11.398438 38.203125 L 11.5625 38.25 C 13.378906 38.824219 14.609375 40.511719 14.605469 42.414062 L 14.605469 43.753906 C 14.605469 43.960938 14.4375 44.128906 14.230469 44.128906 L 4.910156 44.128906 C 4.703125 44.128906 4.535156 43.960938 4.535156 43.753906 L 4.535156 42.414062 C 4.527344 40.507812 5.761719 38.824219 7.578125 38.25 L 7.738281 38.199219 Z M 7.609375 38.09375 "/>
<path style=" stroke:none;fill-rule:nonzero;fill:rgb(93.72549%,98.039216%,99.607843%);fill-opacity:1;" d="M 9.324219 38.046875 L 9.820312 38.046875 C 11.027344 37.914062 11.925781 36.859375 11.859375 35.644531 C 11.792969 34.429688 10.789062 33.476562 9.570312 33.476562 C 8.355469 33.476562 7.347656 34.429688 7.28125 35.644531 C 7.21875 36.859375 8.113281 37.914062 9.324219 38.046875 Z M 9.324219 38.046875 "/>
<path style=" stroke:none;fill-rule:nonzero;fill:rgb(89.411765%,92.156863%,92.941176%);fill-opacity:1;" d="M 10.242188 38.796875 L 9.304688 38.796875 C 11.300781 38.800781 12.917969 40.417969 12.921875 42.414062 L 12.921875 43.378906 L 13.859375 43.378906 L 13.859375 42.414062 C 13.855469 40.417969 12.238281 38.800781 10.242188 38.796875 Z M 10.242188 38.796875 "/>
<path style=" stroke:none;fill-rule:nonzero;fill:rgb(89.411765%,92.156863%,92.941176%);fill-opacity:1;" d="M 9.5625 33.476562 C 9.40625 33.476562 9.246094 33.496094 9.09375 33.527344 C 10.15625 33.75 10.914062 34.683594 10.914062 35.769531 C 10.914062 36.855469 10.15625 37.789062 9.09375 38.011719 C 9.164062 38.027344 9.238281 38.039062 9.3125 38.046875 L 9.808594 38.046875 C 11.019531 37.917969 11.917969 36.863281 11.851562 35.644531 C 11.789062 34.429688 10.78125 33.476562 9.5625 33.476562 Z M 9.5625 33.476562 "/>
<path style=" stroke:none;fill-rule:nonzero;fill:rgb(89.411765%,92.156863%,92.941176%);fill-opacity:1;" d="M 39.097656 38.796875 L 38.160156 38.796875 C 40.15625 38.800781 41.777344 40.417969 41.777344 42.414062 L 41.777344 43.378906 L 42.714844 43.378906 L 42.714844 42.414062 C 42.714844 40.417969 41.09375 38.800781 39.097656 38.796875 Z M 39.097656 38.796875 "/>
<path style=" stroke:none;fill-rule:nonzero;fill:rgb(89.411765%,92.156863%,92.941176%);fill-opacity:1;" d="M 38.4375 33.476562 C 38.28125 33.476562 38.121094 33.496094 37.96875 33.527344 C 39.03125 33.75 39.789062 34.683594 39.789062 35.769531 C 39.789062 36.855469 39.03125 37.789062 37.96875 38.011719 C 38.039062 38.027344 38.113281 38.039062 38.1875 38.046875 L 38.683594 38.046875 C 39.894531 37.917969 40.792969 36.863281 40.726562 35.644531 C 40.664062 34.429688 39.65625 33.476562 38.4375 33.476562 Z M 38.4375 33.476562 "/>
<path style=" stroke:none;fill-rule:nonzero;fill:rgb(89.411765%,92.156863%,92.941176%);fill-opacity:1;" d="M 24.667969 9.9375 L 23.730469 9.9375 C 25.730469 9.941406 27.347656 11.558594 27.351562 13.554688 L 27.351562 14.523438 L 28.289062 14.523438 L 28.289062 13.554688 C 28.285156 11.558594 26.667969 9.941406 24.667969 9.9375 Z M 24.667969 9.9375 "/>
<path style=" stroke:none;fill-rule:nonzero;fill:rgb(89.411765%,92.156863%,92.941176%);fill-opacity:1;" d="M 24 4.621094 C 23.84375 4.621094 23.683594 4.636719 23.53125 4.667969 C 24.59375 4.890625 25.351562 5.828125 25.351562 6.910156 C 25.351562 7.996094 24.59375 8.929688 23.53125 9.152344 C 23.601562 9.167969 23.675781 9.179688 23.75 9.1875 L 24.246094 9.1875 C 25.457031 9.058594 26.355469 8.003906 26.289062 6.789062 C 26.226562 5.570312 25.21875 4.617188 24 4.621094 Z M 24 4.621094 "/>
<path style=" stroke:none;fill-rule:nonzero;fill:rgb(12.941176%,59.215686%,96.862745%);fill-opacity:1;" d="M 29.8125 2.25 L 28.875 2.25 C 29.703125 2.25 30.375 2.921875 30.375 3.75 L 30.375 15.390625 C 30.375 16.21875 29.703125 16.890625 28.875 16.890625 L 29.8125 16.890625 C 30.640625 16.890625 31.3125 16.21875 31.3125 15.390625 L 31.3125 3.75 C 31.3125 2.921875 30.640625 2.25 29.8125 2.25 Z M 29.8125 2.25 "/>
<path style=" stroke:none;fill-rule:nonzero;fill:rgb(84.705882%,28.627451%,21.176471%);fill-opacity:1;" d="M 15.390625 31.109375 L 14.453125 31.109375 C 15.28125 31.109375 15.953125 31.78125 15.953125 32.609375 L 15.953125 44.25 C 15.953125 45.078125 15.28125 45.75 14.453125 45.75 L 15.390625 45.75 C 16.21875 45.75 16.890625 45.078125 16.890625 44.25 L 16.890625 32.609375 C 16.890625 31.78125 16.21875 31.109375 15.390625 31.109375 Z M 15.390625 31.109375 "/>
<path style=" stroke:none;fill-rule:nonzero;fill:rgb(93.72549%,78.431373%,1.176471%);fill-opacity:1;" d="M 44.25 31.109375 L 43.3125 31.109375 C 44.140625 31.109375 44.8125 31.78125 44.8125 32.609375 L 44.8125 44.25 C 44.8125 45.078125 44.140625 45.75 43.3125 45.75 L 44.25 45.75 C 45.078125 45.75 45.75 45.078125 45.75 44.25 L 45.75 32.609375 C 45.75 31.78125 45.078125 31.109375 44.25 31.109375 Z M 44.25 31.109375 "/>
<path style=" stroke:none;fill-rule:nonzero;fill:rgb(14.901961%,19.607843%,21.960784%);fill-opacity:1;" d="M 26.019531 9.304688 C 27.027344 8.457031 27.398438 7.070312 26.945312 5.832031 C 26.492188 4.597656 25.316406 3.773438 24 3.773438 C 22.683594 3.773438 21.507812 4.597656 21.054688 5.832031 C 20.605469 7.070312 20.972656 8.457031 21.980469 9.304688 C 20.128906 9.894531 18.871094 11.613281 18.867188 13.554688 L 18.867188 14.898438 C 18.867188 15.15625 19.078125 15.367188 19.335938 15.367188 L 28.660156 15.367188 C 28.921875 15.367188 29.128906 15.15625 29.128906 14.898438 L 29.128906 13.554688 C 29.128906 11.613281 27.871094 9.894531 26.019531 9.304688 Z M 21.800781 6.910156 C 21.800781 5.730469 22.738281 4.757812 23.917969 4.714844 C 25.101562 4.671875 26.105469 5.570312 26.191406 6.75 C 26.277344 7.929688 25.414062 8.964844 24.238281 9.09375 L 23.761719 9.09375 C 22.648438 8.972656 21.804688 8.03125 21.800781 6.910156 Z M 28.195312 14.4375 L 19.804688 14.4375 L 19.804688 13.554688 C 19.808594 11.613281 21.382812 10.035156 23.328125 10.03125 L 24.667969 10.03125 C 26.613281 10.035156 28.191406 11.609375 28.195312 13.554688 Z M 28.195312 14.4375 "/>
<path style=" stroke:none;fill-rule:nonzero;fill:rgb(14.901961%,19.607843%,21.960784%);fill-opacity:1;" d="M 32.164062 15.390625 L 32.164062 3.75 C 32.164062 3.125 31.917969 2.53125 31.476562 2.089844 C 31.035156 1.648438 30.4375 1.402344 29.8125 1.40625 L 18.1875 1.40625 C 17.5625 1.402344 16.964844 1.648438 16.523438 2.089844 C 16.082031 2.53125 15.835938 3.125 15.835938 3.75 L 15.835938 15.390625 C 15.835938 16.015625 16.082031 16.613281 16.523438 17.050781 C 16.964844 17.492188 17.5625 17.738281 18.1875 17.734375 L 29.8125 17.734375 C 30.4375 17.738281 31.035156 17.492188 31.476562 17.050781 C 31.917969 16.613281 32.164062 16.015625 32.164062 15.390625 Z M 16.773438 15.390625 L 16.773438 3.75 C 16.773438 3.375 16.921875 3.015625 17.1875 2.753906 C 17.453125 2.488281 17.8125 2.34375 18.1875 2.34375 L 29.8125 2.34375 C 30.589844 2.34375 31.21875 2.972656 31.21875 3.75 L 31.21875 15.390625 C 31.21875 16.167969 30.589844 16.796875 29.8125 16.796875 L 18.1875 16.796875 C 17.8125 16.800781 17.453125 16.652344 17.1875 16.390625 C 16.921875 16.125 16.773438 15.765625 16.773438 15.390625 Z M 16.773438 15.390625 "/>
<path style=" stroke:none;fill-rule:nonzero;fill:rgb(14.901961%,19.607843%,21.960784%);fill-opacity:1;" d="M 4.910156 44.222656 L 14.234375 44.222656 C 14.492188 44.222656 14.703125 44.015625 14.703125 43.753906 L 14.703125 42.414062 C 14.699219 40.472656 13.441406 38.753906 11.589844 38.160156 C 12.597656 37.3125 12.96875 35.925781 12.515625 34.6875 C 12.0625 33.453125 10.886719 32.628906 9.570312 32.628906 C 8.253906 32.628906 7.078125 33.453125 6.625 34.6875 C 6.175781 35.925781 6.542969 37.3125 7.550781 38.160156 C 5.699219 38.753906 4.441406 40.472656 4.441406 42.414062 L 4.441406 43.753906 C 4.441406 44.015625 4.648438 44.222656 4.910156 44.222656 Z M 7.375 35.769531 C 7.375 34.585938 8.308594 33.617188 9.492188 33.574219 C 10.671875 33.53125 11.675781 34.429688 11.761719 35.609375 C 11.851562 36.789062 10.988281 37.824219 9.8125 37.953125 L 9.332031 37.953125 C 8.21875 37.832031 7.375 36.890625 7.375 35.769531 Z M 5.378906 42.414062 C 5.378906 40.46875 6.957031 38.894531 8.902344 38.890625 L 10.242188 38.890625 C 12.1875 38.894531 13.761719 40.46875 13.765625 42.414062 L 13.765625 43.285156 L 5.378906 43.285156 Z M 5.378906 42.414062 "/>
<path style=" stroke:none;fill-rule:nonzero;fill:rgb(14.901961%,19.607843%,21.960784%);fill-opacity:1;" d="M 3.75 46.59375 L 15.390625 46.59375 C 16.6875 46.59375 17.734375 45.542969 17.734375 44.25 L 17.734375 32.609375 C 17.734375 31.3125 16.6875 30.265625 15.390625 30.265625 L 3.75 30.265625 C 2.457031 30.265625 1.40625 31.3125 1.40625 32.609375 L 1.40625 44.25 C 1.40625 45.542969 2.457031 46.59375 3.75 46.59375 Z M 2.34375 32.609375 C 2.34375 31.832031 2.972656 31.203125 3.75 31.203125 L 15.390625 31.203125 C 16.167969 31.203125 16.796875 31.832031 16.796875 32.609375 L 16.796875 44.25 C 16.796875 45.027344 16.167969 45.65625 15.390625 45.65625 L 3.75 45.65625 C 2.972656 45.65625 2.34375 45.027344 2.34375 44.25 Z M 2.34375 32.609375 "/>
<path style=" stroke:none;fill-rule:nonzero;fill:rgb(14.901961%,19.607843%,21.960784%);fill-opacity:1;" d="M 40.449219 38.160156 C 41.457031 37.3125 41.824219 35.925781 41.375 34.6875 C 40.921875 33.453125 39.746094 32.628906 38.429688 32.628906 C 37.113281 32.628906 35.9375 33.453125 35.484375 34.6875 C 35.03125 35.925781 35.402344 37.3125 36.410156 38.160156 C 34.558594 38.753906 33.300781 40.472656 33.296875 42.414062 L 33.296875 43.753906 C 33.296875 44.015625 33.507812 44.222656 33.765625 44.222656 L 43.089844 44.222656 C 43.351562 44.222656 43.558594 44.015625 43.558594 43.753906 L 43.558594 42.414062 C 43.558594 40.472656 42.300781 38.753906 40.449219 38.160156 Z M 36.234375 35.769531 C 36.234375 34.585938 37.167969 33.617188 38.351562 33.574219 C 39.53125 33.53125 40.535156 34.429688 40.621094 35.609375 C 40.707031 36.789062 39.84375 37.824219 38.671875 37.953125 L 38.191406 37.953125 C 37.078125 37.832031 36.230469 36.890625 36.230469 35.769531 Z M 42.625 43.285156 L 34.234375 43.285156 L 34.234375 42.414062 C 34.238281 40.46875 35.8125 38.894531 37.757812 38.890625 L 39.097656 38.890625 C 41.042969 38.894531 42.621094 40.46875 42.621094 42.414062 Z M 42.625 43.285156 "/>
<path style=" stroke:none;fill-rule:nonzero;fill:rgb(14.901961%,19.607843%,21.960784%);fill-opacity:1;" d="M 44.25 30.265625 L 32.609375 30.265625 C 31.3125 30.265625 30.265625 31.3125 30.265625 32.609375 L 30.265625 44.25 C 30.265625 45.542969 31.3125 46.59375 32.609375 46.59375 L 44.25 46.59375 C 45.542969 46.59375 46.59375 45.542969 46.59375 44.25 L 46.59375 32.609375 C 46.59375 31.3125 45.542969 30.265625 44.25 30.265625 Z M 45.65625 44.25 C 45.65625 45.027344 45.027344 45.65625 44.25 45.65625 L 32.609375 45.65625 C 31.832031 45.65625 31.203125 45.027344 31.203125 44.25 L 31.203125 32.609375 C 31.203125 31.832031 31.832031 31.203125 32.609375 31.203125 L 44.25 31.203125 C 45.027344 31.203125 45.65625 31.832031 45.65625 32.609375 Z M 45.65625 44.25 "/>
<path style=" stroke:none;fill-rule:nonzero;fill:rgb(14.901961%,19.607843%,21.960784%);fill-opacity:1;" d="M 25.875 41.410156 C 25.964844 41.5 26.082031 41.550781 26.207031 41.550781 C 26.332031 41.550781 26.449219 41.5 26.539062 41.410156 L 29.191406 38.761719 C 29.277344 38.671875 29.328125 38.550781 29.328125 38.429688 C 29.328125 38.304688 29.277344 38.183594 29.191406 38.097656 L 26.535156 35.4375 C 26.355469 35.253906 26.054688 35.253906 25.875 35.4375 C 25.691406 35.621094 25.691406 35.917969 25.875 36.101562 L 27.722656 37.953125 L 19.140625 37.953125 C 18.882812 37.953125 18.671875 38.164062 18.671875 38.421875 C 18.671875 38.679688 18.882812 38.890625 19.140625 38.890625 L 27.726562 38.890625 L 25.875 40.75 C 25.691406 40.933594 25.691406 41.226562 25.875 41.410156 Z M 25.875 41.410156 "/>
<path style=" stroke:none;fill-rule:nonzero;fill:rgb(14.901961%,19.607843%,21.960784%);fill-opacity:1;" d="M 34.992188 22.910156 C 35.253906 22.910156 35.460938 22.699219 35.460938 22.441406 L 35.460938 19.816406 L 41.53125 25.882812 C 41.714844 26.066406 42.011719 26.066406 42.195312 25.882812 C 42.378906 25.699219 42.378906 25.402344 42.195312 25.21875 L 36.125 19.152344 L 38.75 19.152344 C 39.007812 19.152344 39.21875 18.941406 39.21875 18.683594 C 39.21875 18.421875 39.007812 18.214844 38.75 18.214844 L 35 18.214844 C 34.742188 18.214844 34.53125 18.421875 34.53125 18.683594 L 34.53125 22.433594 C 34.527344 22.691406 34.734375 22.90625 34.992188 22.910156 Z M 34.992188 22.910156 "/>
<path style=" stroke:none;fill-rule:nonzero;fill:rgb(14.901961%,19.607843%,21.960784%);fill-opacity:1;" d="M 13.335938 18.359375 C 13.25 18.269531 13.128906 18.21875 13.003906 18.21875 C 12.878906 18.21875 12.761719 18.269531 12.671875 18.359375 L 6.605469 24.425781 L 6.605469 21.800781 C 6.605469 21.542969 6.394531 21.332031 6.136719 21.332031 C 5.878906 21.332031 5.667969 21.542969 5.667969 21.800781 L 5.667969 25.550781 C 5.667969 25.8125 5.878906 26.019531 6.136719 26.019531 L 9.886719 26.019531 C 10.144531 26.019531 10.355469 25.8125 10.355469 25.550781 C 10.355469 25.292969 10.144531 25.082031 9.886719 25.082031 L 7.261719 25.082031 L 13.332031 19.015625 C 13.511719 18.832031 13.515625 18.542969 13.335938 18.359375 Z M 13.335938 18.359375 "/>
<path style=" stroke:none;fill-rule:nonzero;fill:rgb(100%,86.666667%,0%);fill-opacity:1;" d="M 44.496094 11.4375 L 43.746094 11.4375 L 43.746094 10.6875 C 43.746094 10.582031 43.664062 10.5 43.558594 10.5 C 43.457031 10.5 43.371094 10.582031 43.371094 10.6875 L 43.371094 11.4375 L 42.621094 11.4375 C 42.519531 11.4375 42.433594 11.519531 42.433594 11.625 C 42.433594 11.730469 42.519531 11.8125 42.621094 11.8125 L 43.371094 11.8125 L 43.371094 12.5625 C 43.371094 12.667969 43.457031 12.75 43.558594 12.75 C 43.664062 12.75 43.746094 12.667969 43.746094 12.5625 L 43.746094 11.8125 L 44.496094 11.8125 C 44.601562 11.8125 44.683594 11.730469 44.683594 11.625 C 44.683594 11.519531 44.601562 11.4375 44.496094 11.4375 Z M 44.496094 11.4375 "/>
<path style=" stroke:none;fill-rule:nonzero;fill:rgb(25.098039%,74.117647%,100%);fill-opacity:1;" d="M 37.261719 7.21875 C 36.640625 7.21875 36.136719 6.714844 36.136719 6.09375 C 36.136719 5.472656 36.640625 4.96875 37.261719 4.96875 C 37.882812 4.96875 38.386719 5.472656 38.386719 6.09375 C 38.386719 6.714844 37.882812 7.21875 37.261719 7.21875 Z M 37.261719 5.34375 C 36.847656 5.34375 36.511719 5.679688 36.511719 6.09375 C 36.511719 6.507812 36.847656 6.84375 37.261719 6.84375 C 37.675781 6.84375 38.011719 6.507812 38.011719 6.09375 C 38.011719 5.679688 37.675781 5.34375 37.261719 5.34375 Z M 37.261719 5.34375 "/>
<path style=" stroke:none;fill-rule:nonzero;fill:rgb(100%,86.666667%,0%);fill-opacity:1;" d="M 28.78125 27.914062 C 28.160156 27.914062 27.65625 27.410156 27.65625 26.789062 C 27.65625 26.167969 28.160156 25.664062 28.78125 25.664062 C 29.402344 25.664062 29.90625 26.167969 29.90625 26.789062 C 29.90625 27.410156 29.402344 27.914062 28.78125 27.914062 Z M 28.78125 26.039062 C 28.367188 26.039062 28.03125 26.375 28.03125 26.789062 C 28.03125 27.203125 28.367188 27.539062 28.78125 27.539062 C 29.195312 27.539062 29.53125 27.203125 29.53125 26.789062 C 29.53125 26.375 29.195312 26.039062 28.78125 26.039062 Z M 28.78125 26.039062 "/>
<path style=" stroke:none;fill-rule:nonzero;fill:rgb(25.098039%,74.117647%,100%);fill-opacity:1;" d="M 43.558594 21.375 C 42.9375 21.375 42.433594 20.871094 42.433594 20.25 C 42.433594 19.628906 42.9375 19.125 43.558594 19.125 C 44.179688 19.125 44.683594 19.628906 44.683594 20.25 C 44.683594 20.871094 44.179688 21.375 43.558594 21.375 Z M 43.558594 19.5 C 43.144531 19.5 42.808594 19.835938 42.808594 20.25 C 42.808594 20.664062 43.144531 21 43.558594 21 C 43.972656 21 44.308594 20.664062 44.308594 20.25 C 44.308594 19.835938 43.972656 19.5 43.558594 19.5 Z M 43.558594 19.5 "/>
<path style=" stroke:none;fill-rule:nonzero;fill:rgb(25.098039%,74.117647%,100%);fill-opacity:1;" d="M 10.976562 13.6875 L 10.5 13.6875 L 10.84375 13.34375 C 10.90625 13.269531 10.902344 13.160156 10.832031 13.089844 C 10.765625 13.019531 10.652344 13.015625 10.578125 13.078125 L 10.234375 13.421875 L 10.234375 12.9375 C 10.234375 12.832031 10.152344 12.75 10.046875 12.75 C 9.945312 12.75 9.859375 12.832031 9.859375 12.9375 L 9.859375 13.421875 L 9.515625 13.078125 C 9.441406 13.015625 9.332031 13.019531 9.261719 13.089844 C 9.195312 13.160156 9.1875 13.269531 9.253906 13.34375 L 9.585938 13.6875 L 9.101562 13.6875 C 9 13.6875 8.914062 13.769531 8.914062 13.875 C 8.914062 13.980469 9 14.0625 9.101562 14.0625 L 9.589844 14.0625 L 9.242188 14.40625 C 9.179688 14.480469 9.183594 14.589844 9.253906 14.660156 C 9.324219 14.730469 9.433594 14.734375 9.507812 14.671875 L 9.851562 14.328125 L 9.851562 14.8125 C 9.851562 14.917969 9.933594 15 10.039062 15 C 10.140625 15 10.226562 14.917969 10.226562 14.8125 L 10.226562 14.328125 L 10.570312 14.671875 C 10.644531 14.734375 10.753906 14.730469 10.824219 14.660156 C 10.894531 14.589844 10.898438 14.480469 10.832031 14.40625 L 10.5 14.0625 L 10.984375 14.0625 C 11.089844 14.0625 11.171875 13.980469 11.171875 13.875 C 11.171875 13.769531 11.089844 13.6875 10.984375 13.6875 Z M 10.976562 13.6875 "/>
</g>
</svg>
