<?xml version="1.0" encoding="UTF-8"?>
<svg xmlns="http://www.w3.org/2000/svg" xmlns:xlink="http://www.w3.org/1999/xlink" width="30pt" height="30pt" viewBox="0 0 30 30" version="1.1">
<g id="surface1">
<path style=" stroke:none;fill-rule:nonzero;fill:rgb(0%,0%,0%);fill-opacity:1;" d="M 15 5.625 C 7.234375 5.625 0.9375 11.921875 0.9375 19.6875 C 0.9375 21.332031 1.234375 22.90625 1.753906 24.375 L 28.246094 24.375 C 28.765625 22.90625 29.0625 21.332031 29.0625 19.6875 C 29.0625 11.921875 22.765625 5.625 15 5.625 Z M 12.40625 22.5 C 12.792969 21.417969 13.78125 20.625 15 20.625 C 16.21875 20.625 17.207031 21.417969 17.59375 22.5 Z M 19.558594 22.5 L 19.339844 21.679688 L 24.832031 13.777344 L 17.007812 19.21875 C 17.03125 19.230469 17.050781 19.25 17.074219 19.257812 C 16.445312 18.945312 15.75 18.75 15 18.75 C 12.742188 18.75 10.875 20.367188 10.441406 22.5 L 3.152344 22.5 C 3 21.878906 2.917969 21.253906 2.867188 20.625 L 5.625 20.625 C 6.144531 20.625 6.5625 20.207031 6.5625 19.6875 C 6.5625 19.167969 6.144531 18.75 5.625 18.75 L 2.859375 18.75 C 3.0625 16.09375 4.117188 13.675781 5.753906 11.769531 L 7.707031 13.722656 C 8.074219 14.089844 8.667969 14.089844 9.035156 13.722656 C 9.402344 13.355469 9.402344 12.761719 9.035156 12.394531 L 7.082031 10.441406 C 8.988281 8.804688 11.40625 7.75 14.0625 7.546875 L 14.0625 10.3125 C 14.0625 10.832031 14.480469 11.25 15 11.25 C 15.519531 11.25 15.9375 10.832031 15.9375 10.3125 L 15.9375 7.546875 C 18.59375 7.75 21.011719 8.804688 22.917969 10.441406 L 20.964844 12.394531 C 20.597656 12.761719 20.597656 13.355469 20.964844 13.722656 C 21.332031 14.089844 21.925781 14.089844 22.292969 13.722656 L 24.246094 11.769531 C 25.882812 13.675781 26.9375 16.09375 27.140625 18.75 L 24.375 18.75 C 23.855469 18.75 23.4375 19.167969 23.4375 19.6875 C 23.4375 20.207031 23.855469 20.625 24.375 20.625 L 27.128906 20.625 C 27.082031 21.253906 27 21.878906 26.847656 22.5 Z M 19.558594 22.5 "/>
</g>
</svg>
