<?xml version="1.0" encoding="UTF-8"?>
<svg xmlns="http://www.w3.org/2000/svg" xmlns:xlink="http://www.w3.org/1999/xlink" width="24pt" height="24pt" viewBox="0 0 24 24" version="1.1">
<g id="surface1">
<path style=" stroke:none;fill-rule:nonzero;fill:rgb(0%,0%,0%);fill-opacity:1;" d="M 23.671875 12.046875 C 23.671875 13.679688 23.640625 15.3125 23.679688 16.945312 C 23.75 19.832031 21.9375 22.0625 19.625 23.058594 C 18.699219 23.457031 17.722656 23.667969 16.714844 23.667969 C 13.5625 23.671875 10.402344 23.714844 7.246094 23.652344 C 4.871094 23.605469 2.914062 22.613281 1.515625 20.652344 C 0.777344 19.621094 0.425781 18.449219 0.425781 17.179688 C 0.425781 13.820312 0.425781 10.460938 0.425781 7.101562 C 0.425781 4.359375 1.761719 2.441406 4.132812 1.195312 C 5.164062 0.65625 6.285156 0.425781 7.453125 0.421875 C 10.515625 0.421875 13.578125 0.402344 16.640625 0.429688 C 19.015625 0.449219 21 1.359375 22.460938 3.273438 C 23.277344 4.339844 23.671875 5.570312 23.671875 6.917969 C 23.671875 8.625 23.671875 10.335938 23.671875 12.046875 Z M 2.15625 12.046875 C 2.15625 13.765625 2.15625 15.484375 2.15625 17.203125 C 2.15625 17.972656 2.335938 18.695312 2.734375 19.34375 C 3.777344 21.054688 5.359375 21.890625 7.316406 21.921875 C 10.460938 21.96875 13.613281 21.941406 16.761719 21.933594 C 17.535156 21.933594 18.285156 21.773438 18.984375 21.441406 C 20.886719 20.53125 21.953125 19.082031 21.941406 16.90625 C 21.921875 13.578125 21.9375 10.25 21.9375 6.921875 C 21.9375 5.980469 21.671875 5.117188 21.113281 4.359375 C 20.035156 2.902344 18.542969 2.183594 16.761719 2.164062 C 13.621094 2.128906 10.480469 2.152344 7.339844 2.15625 C 6.671875 2.15625 6.023438 2.292969 5.394531 2.527344 C 3.671875 3.167969 2.066406 4.796875 2.140625 7.191406 C 2.199219 8.8125 2.15625 10.429688 2.15625 12.046875 Z M 2.15625 12.046875 "/>
<path style=" stroke:none;fill-rule:nonzero;fill:rgb(0%,0%,0%);fill-opacity:1;" d="M 12.074219 17.015625 C 9.050781 17.015625 6.613281 14.605469 6.609375 11.605469 C 6.605469 8.652344 9.0625 6.234375 12.066406 6.234375 C 15.078125 6.230469 17.527344 8.644531 17.53125 11.621094 C 17.53125 14.59375 15.089844 17.011719 12.074219 17.015625 Z M 12.074219 15.28125 C 14.132812 15.28125 15.800781 13.636719 15.796875 11.609375 C 15.792969 9.605469 14.125 7.964844 12.074219 7.964844 C 10.015625 7.964844 8.339844 9.601562 8.339844 11.621094 C 8.34375 13.644531 10.015625 15.285156 12.074219 15.28125 Z M 12.074219 15.28125 "/>
<path style=" stroke:none;fill-rule:nonzero;fill:rgb(0%,0%,0%);fill-opacity:1;" d="M 18.164062 4.59375 C 18.796875 4.59375 19.3125 5.132812 19.3125 5.792969 C 19.308594 6.453125 18.789062 6.988281 18.15625 6.984375 C 17.53125 6.980469 17.019531 6.445312 17.019531 5.796875 C 17.015625 5.136719 17.53125 4.59375 18.164062 4.59375 Z M 18.164062 4.59375 "/>
</g>
</svg>
