<?xml version="1.0" encoding="UTF-8"?>
<svg xmlns="http://www.w3.org/2000/svg" xmlns:xlink="http://www.w3.org/1999/xlink" width="24pt" height="24pt" viewBox="0 0 24 24" version="1.1">
<g id="surface1">
<path style=" stroke:none;fill-rule:nonzero;fill:rgb(0%,0%,0%);fill-opacity:1;" d="M 14.503906 17.441406 C 15.78125 17.148438 16.996094 16.644531 18.105469 15.949219 C 18.9375 15.390625 19.164062 14.265625 18.605469 13.429688 C 18.070312 12.628906 17 12.386719 16.171875 12.878906 C 13.621094 14.472656 10.378906 14.472656 7.828125 12.878906 C 6.984375 12.34375 5.863281 12.597656 5.328125 13.441406 C 5.328125 13.445312 5.328125 13.445312 5.328125 13.445312 C 4.792969 14.292969 5.046875 15.414062 5.894531 15.945312 L 5.898438 15.949219 C 7.003906 16.644531 8.21875 17.148438 9.492188 17.4375 L 6.027344 20.902344 C 5.320312 21.597656 5.308594 22.730469 6 23.4375 L 6.03125 23.46875 C 6.375 23.820312 6.839844 24 7.304688 24 C 7.769531 24 8.234375 23.820312 8.578125 23.46875 L 12 20.066406 L 15.402344 23.472656 C 16.125 24.164062 17.273438 24.148438 17.96875 23.425781 C 18.648438 22.722656 18.648438 21.609375 17.96875 20.90625 Z M 12 12.386719 C 15.421875 12.382812 18.191406 9.613281 18.195312 6.195312 C 18.195312 2.78125 15.414062 0 12 0 C 8.585938 0 5.804688 2.78125 5.804688 6.195312 C 5.808594 9.617188 8.582031 12.386719 12 12.390625 Z M 12 3.632812 C 13.414062 3.632812 14.5625 4.78125 14.5625 6.195312 C 14.5625 7.613281 13.414062 8.757812 12 8.761719 C 10.585938 8.757812 9.4375 7.613281 9.433594 6.195312 C 9.4375 4.78125 10.585938 3.632812 12 3.628906 Z M 12 3.632812 "/>
</g>
</svg>
