<?xml version="1.0" encoding="UTF-8"?>
<svg xmlns="http://www.w3.org/2000/svg" xmlns:xlink="http://www.w3.org/1999/xlink" width="24pt" height="24pt" viewBox="0 0 24 24" version="1.1">
<g id="surface1">
<path style=" stroke:none;fill-rule:nonzero;fill:rgb(0%,0%,0%);fill-opacity:1;" d="M 13.164062 18.847656 C 13.769531 18.847656 14.019531 18.441406 14.011719 17.933594 C 13.980469 16.019531 14.726562 14.988281 16.070312 16.332031 C 17.558594 17.820312 17.867188 18.847656 19.675781 18.847656 C 20.359375 18.847656 22.207031 18.847656 22.875 18.847656 C 25.390625 18.847656 23.148438 16.324219 21.375 14.679688 C 19.6875 13.117188 19.609375 13.082031 21.0625 11.199219 C 22.863281 8.863281 25.222656 5.855469 23.136719 5.855469 C 22.726562 5.855469 23.019531 5.855469 19.15625 5.855469 C 18.382812 5.855469 18.324219 6.304688 18.050781 6.953125 C 17.058594 9.296875 15.167969 12.332031 14.449219 11.871094 C 13.695312 11.382812 14.039062 9.738281 14.097656 6.890625 C 14.113281 6.136719 14.109375 5.617188 12.957031 5.351562 C 9.8125 4.621094 7.085938 6.058594 8.199219 6.261719 C 9.769531 6.554688 9.617188 9.679688 9.253906 11.144531 C 8.613281 13.695312 6.214844 9.125 5.214844 6.84375 C 4.976562 6.296875 4.902344 5.855469 4.039062 5.855469 C 3.570312 5.855469 1.484375 5.855469 0.785156 5.855469 C 0.160156 5.855469 -0.148438 6.144531 0.0703125 6.726562 C 0.289062 7.308594 2.808594 12.933594 5.785156 16.144531 C 8.542969 19.113281 11.265625 18.847656 13.164062 18.847656 Z M 13.164062 18.847656 "/>
</g>
</svg>
