<?xml version="1.0" encoding="UTF-8"?>
<svg xmlns="http://www.w3.org/2000/svg" xmlns:xlink="http://www.w3.org/1999/xlink" width="48pt" height="48pt" viewBox="0 0 48 48" version="1.1">
<g id="surface1">
<path style=" stroke:none;fill-rule:nonzero;fill:rgb(100%,92.156863%,23.529412%);fill-opacity:1;" d="M 16.234375 1.410156 L 33.175781 1.410156 C 34.734375 1.410156 36 2.675781 36 4.234375 L 36 21.175781 C 36 22.734375 34.734375 24 33.175781 24 L 16.234375 24 C 14.675781 24 13.410156 22.734375 13.410156 21.175781 L 13.410156 4.234375 C 13.410156 2.675781 14.675781 1.410156 16.234375 1.410156 Z M 16.234375 1.410156 "/>
<path style=" stroke:none;fill-rule:nonzero;fill:rgb(95.294118%,95.686275%,94.901961%);fill-opacity:1;" d="M 33.175781 5.648438 L 33.175781 19.765625 C 33.175781 20.542969 32.542969 21.175781 31.765625 21.175781 L 17.648438 21.175781 C 16.867188 21.175781 16.234375 20.542969 16.234375 19.765625 L 16.234375 5.648438 C 16.234375 4.867188 16.867188 4.234375 17.648438 4.234375 L 31.765625 4.234375 C 32.542969 4.234375 33.175781 4.867188 33.175781 5.648438 Z M 33.175781 5.648438 "/>
<path style=" stroke:none;fill-rule:nonzero;fill:rgb(96.078431%,26.27451%,21.568627%);fill-opacity:1;" d="M 26.824219 24 L 43.765625 24 C 45.324219 24 46.589844 25.265625 46.589844 26.824219 L 46.589844 43.765625 C 46.589844 45.324219 45.324219 46.589844 43.765625 46.589844 L 26.824219 46.589844 C 25.265625 46.589844 24 45.324219 24 43.765625 L 24 26.824219 C 24 25.265625 25.265625 24 26.824219 24 Z M 26.824219 24 "/>
<path style=" stroke:none;fill-rule:nonzero;fill:rgb(95.294118%,95.686275%,94.901961%);fill-opacity:1;" d="M 43.765625 28.234375 L 43.765625 42.351562 C 43.765625 43.132812 43.132812 43.765625 42.351562 43.765625 L 28.234375 43.765625 C 27.457031 43.765625 26.824219 43.132812 26.824219 42.351562 L 26.824219 28.234375 C 26.824219 27.457031 27.457031 26.824219 28.234375 26.824219 L 42.351562 26.824219 C 43.132812 26.824219 43.765625 27.457031 43.765625 28.234375 Z M 43.765625 28.234375 "/>
<path style=" stroke:none;fill-rule:nonzero;fill:rgb(39.215686%,70.980392%,96.470588%);fill-opacity:1;" d="M 4.234375 24 L 21.175781 24 C 22.734375 24 24 25.265625 24 26.824219 L 24 43.765625 C 24 45.324219 22.734375 46.589844 21.175781 46.589844 L 4.234375 46.589844 C 2.675781 46.589844 1.410156 45.324219 1.410156 43.765625 L 1.410156 26.824219 C 1.410156 25.265625 2.675781 24 4.234375 24 Z M 4.234375 24 "/>
<path style=" stroke:none;fill-rule:nonzero;fill:rgb(95.294118%,95.686275%,94.901961%);fill-opacity:1;" d="M 21.175781 28.234375 L 21.175781 42.351562 C 21.175781 43.132812 20.542969 43.765625 19.765625 43.765625 L 5.648438 43.765625 C 4.867188 43.765625 4.234375 43.132812 4.234375 42.351562 L 4.234375 28.234375 C 4.234375 27.457031 4.867188 26.824219 5.648438 26.824219 L 19.765625 26.824219 C 20.542969 26.824219 21.175781 27.457031 21.175781 28.234375 Z M 21.175781 28.234375 "/>
<path style=" stroke:none;fill-rule:nonzero;fill:rgb(100%,92.156863%,23.529412%);fill-opacity:1;" d="M 24.300781 15.898438 C 24.074219 15.890625 23.847656 15.625 23.617188 15.097656 C 23.453125 14.722656 23.320312 14.328125 23.226562 13.925781 C 23.011719 13.957031 22.664062 13.992188 22.183594 14.023438 C 21.726562 14.054688 21.378906 14.089844 21.140625 14.132812 C 21.007812 14.449219 20.777344 14.925781 20.449219 15.558594 C 20.34375 15.753906 20.140625 15.875 19.921875 15.871094 C 19.761719 15.871094 19.609375 15.8125 19.492188 15.707031 C 19.371094 15.605469 19.300781 15.457031 19.304688 15.296875 C 19.304688 15.148438 19.511719 14.652344 19.933594 13.804688 C 19.894531 13.726562 19.875 13.640625 19.882812 13.554688 C 19.894531 13.417969 20.03125 13.308594 20.300781 13.230469 C 20.707031 12.527344 21.160156 11.792969 21.660156 11.035156 C 22.378906 9.945312 22.820312 9.402344 22.988281 9.402344 C 23.304688 9.402344 23.515625 9.59375 23.621094 9.976562 C 23.679688 10.28125 23.769531 10.742188 23.890625 11.359375 C 24.066406 12.183594 24.28125 13.128906 24.535156 14.199219 C 24.597656 14.390625 24.671875 14.582031 24.753906 14.765625 C 24.839844 14.941406 24.890625 15.128906 24.910156 15.324219 C 24.914062 15.484375 24.847656 15.636719 24.722656 15.742188 C 24.609375 15.847656 24.457031 15.90625 24.300781 15.898438 Z M 22.695312 11.488281 C 22.46875 11.871094 22.160156 12.398438 21.769531 13.0625 C 21.96875 13.023438 22.167969 13 22.371094 12.992188 C 22.691406 12.972656 22.894531 12.957031 22.976562 12.945312 C 22.910156 12.566406 22.8125 12.078125 22.695312 11.480469 Z M 22.695312 11.488281 "/>
<path style=" stroke:none;fill-rule:nonzero;fill:rgb(100%,92.156863%,23.529412%);fill-opacity:1;" d="M 29.527344 16.007812 C 29.394531 16.007812 29.1875 15.878906 28.898438 15.625 C 28.671875 15.734375 28.433594 15.832031 28.191406 15.910156 C 28.027344 15.96875 27.855469 16 27.679688 16.007812 C 26.988281 16.007812 26.46875 15.824219 26.121094 15.453125 C 25.773438 15.082031 25.601562 14.527344 25.601562 13.789062 C 25.59375 13.113281 25.875 12.46875 26.371094 12.011719 C 26.855469 11.527344 27.519531 11.261719 28.207031 11.273438 C 28.535156 11.285156 28.855469 11.363281 29.152344 11.503906 C 29.585938 11.6875 29.804688 11.902344 29.804688 12.148438 C 29.804688 12.246094 29.769531 12.34375 29.707031 12.417969 C 29.671875 12.558594 29.648438 12.699219 29.636719 12.84375 C 29.621094 13.015625 29.617188 13.21875 29.617188 13.449219 C 29.597656 13.84375 29.636719 14.238281 29.730469 14.621094 C 29.738281 14.648438 29.804688 14.796875 29.929688 15.066406 C 30.003906 15.199219 30.0625 15.339844 30.105469 15.484375 C 30.109375 15.628906 30.042969 15.769531 29.929688 15.859375 C 29.816406 15.957031 29.675781 16.007812 29.527344 16.007812 Z M 28.460938 13.097656 C 28.460938 12.992188 28.464844 12.886719 28.480469 12.785156 C 28.492188 12.664062 28.511719 12.53125 28.535156 12.382812 C 28.488281 12.359375 28.4375 12.339844 28.382812 12.324219 C 28.347656 12.3125 28.308594 12.304688 28.269531 12.304688 C 27.878906 12.304688 27.503906 12.46875 27.242188 12.761719 C 26.757812 13.289062 26.664062 14.066406 27.011719 14.691406 C 27.152344 14.890625 27.386719 15 27.632812 14.984375 C 27.804688 14.984375 27.976562 14.957031 28.136719 14.894531 C 28.300781 14.835938 28.453125 14.746094 28.589844 14.632812 C 28.515625 14.125 28.472656 13.613281 28.457031 13.097656 Z M 28.460938 13.097656 "/>
<path style=" stroke:none;fill-rule:nonzero;fill:rgb(39.215686%,70.980392%,96.470588%);fill-opacity:1;" d="M 11.011719 38.414062 C 10.191406 38.6875 9.332031 38.816406 8.46875 38.789062 C 8.292969 38.789062 8.125 38.707031 8.007812 38.574219 C 7.882812 38.453125 7.8125 38.289062 7.804688 38.117188 L 7.804688 33.546875 C 7.796875 33.351562 7.789062 33.15625 7.785156 32.960938 C 7.773438 32.773438 7.78125 32.585938 7.804688 32.402344 C 7.84375 32.132812 8.097656 31.96875 8.558594 31.910156 C 8.914062 31.835938 9.28125 31.800781 9.644531 31.816406 C 10.207031 31.824219 10.753906 32.007812 11.203125 32.34375 C 11.792969 32.753906 12.085938 33.261719 12.085938 33.875 C 12.097656 34.164062 12.035156 34.453125 11.910156 34.710938 C 11.777344 34.933594 11.605469 35.132812 11.402344 35.292969 C 11.691406 35.4375 11.945312 35.648438 12.144531 35.90625 C 12.367188 36.15625 12.496094 36.480469 12.511719 36.816406 C 12.511719 37.199219 12.300781 37.558594 11.886719 37.902344 C 11.625 38.117188 11.328125 38.292969 11.011719 38.414062 Z M 9.644531 32.980469 C 9.273438 32.980469 9.050781 32.980469 8.976562 32.980469 L 8.976562 34.800781 C 9.171875 34.832031 9.371094 34.839844 9.566406 34.832031 C 10.445312 34.761719 10.882812 34.4375 10.882812 33.863281 C 10.882812 33.660156 10.753906 33.464844 10.496094 33.273438 C 10.25 33.085938 9.953125 32.984375 9.644531 32.980469 Z M 10.148438 36.027344 C 9.886719 36.027344 9.496094 36.019531 8.976562 36 L 8.976562 37.609375 C 9.523438 37.574219 10.0625 37.480469 10.589844 37.324219 C 11.09375 37.183594 11.34375 37.027344 11.339844 36.859375 C 11.328125 36.636719 11.167969 36.441406 10.851562 36.269531 C 10.636719 36.144531 10.398438 36.058594 10.148438 36.027344 Z M 10.148438 36.027344 "/>
<path style=" stroke:none;fill-rule:nonzero;fill:rgb(39.215686%,70.980392%,96.470588%);fill-opacity:1;" d="M 15.25 38.765625 C 14.855469 38.765625 14.46875 38.695312 14.105469 38.554688 C 14 38.65625 13.859375 38.714844 13.714844 38.710938 C 13.566406 38.714844 13.421875 38.660156 13.316406 38.558594 C 13.207031 38.457031 13.148438 38.316406 13.152344 38.167969 C 13.152344 38.097656 13.15625 37.992188 13.164062 37.851562 C 13.171875 37.710938 13.175781 37.605469 13.175781 37.535156 L 13.175781 32.648438 C 13.171875 32.453125 13.21875 32.265625 13.3125 32.097656 C 13.402344 31.90625 13.59375 31.789062 13.804688 31.792969 C 14.109375 31.792969 14.265625 31.957031 14.265625 32.289062 C 14.261719 32.351562 14.257812 32.410156 14.25 32.46875 C 14.238281 32.527344 14.234375 32.585938 14.230469 32.644531 L 14.230469 34.292969 C 14.425781 34.183594 14.632812 34.09375 14.84375 34.027344 C 15.027344 33.972656 15.21875 33.941406 15.410156 33.941406 C 16.039062 33.921875 16.644531 34.191406 17.046875 34.675781 C 17.4375 35.144531 17.644531 35.738281 17.628906 36.347656 C 17.644531 36.980469 17.398438 37.589844 16.953125 38.039062 C 16.511719 38.511719 15.894531 38.777344 15.25 38.765625 Z M 15.414062 35.058594 C 15.234375 35.066406 15.058594 35.109375 14.894531 35.1875 C 14.664062 35.296875 14.441406 35.425781 14.234375 35.578125 C 14.234375 35.847656 14.234375 36.460938 14.234375 37.410156 C 14.554688 37.558594 14.898438 37.644531 15.25 37.664062 C 15.585938 37.671875 15.914062 37.539062 16.148438 37.292969 C 16.386719 37.042969 16.511719 36.710938 16.5 36.367188 C 16.515625 36.03125 16.414062 35.707031 16.210938 35.4375 C 16.023438 35.191406 15.726562 35.046875 15.414062 35.054688 Z M 15.414062 35.058594 "/>
<path style=" stroke:none;fill-rule:nonzero;fill:rgb(96.078431%,26.27451%,21.568627%);fill-opacity:1;" d="M 35.101562 33.851562 C 34.84375 33.851562 34.613281 33.6875 34.527344 33.441406 C 34.496094 33.347656 34.433594 33.265625 34.351562 33.207031 C 34.242188 33.179688 34.125 33.171875 34.011719 33.179688 C 33.648438 33.179688 33.230469 33.460938 32.757812 34.023438 C 32.097656 34.8125 31.765625 35.546875 31.765625 36.234375 C 31.757812 36.53125 31.871094 36.824219 32.078125 37.039062 C 32.269531 37.253906 32.542969 37.375 32.832031 37.375 C 33.136719 37.371094 33.433594 37.292969 33.699219 37.152344 C 33.800781 37.097656 34.019531 36.957031 34.355469 36.730469 C 34.5 36.609375 34.675781 36.535156 34.863281 36.503906 C 35.027344 36.503906 35.1875 36.570312 35.300781 36.695312 C 35.417969 36.808594 35.476562 36.96875 35.46875 37.132812 C 35.457031 37.292969 35.375 37.445312 35.246094 37.542969 C 34.457031 38.207031 33.652344 38.542969 32.832031 38.542969 C 32.210938 38.550781 31.613281 38.292969 31.195312 37.835938 C 30.78125 37.40625 30.550781 36.832031 30.558594 36.234375 C 30.558594 35.269531 30.976562 34.289062 31.820312 33.285156 C 32.535156 32.433594 33.265625 32.011719 34.011719 32.011719 C 34.140625 32.011719 34.253906 32.015625 34.355469 32.023438 C 34.445312 32.027344 34.535156 32.042969 34.625 32.0625 C 34.746094 31.941406 34.914062 31.878906 35.082031 31.882812 C 35.375 31.882812 35.554688 32.054688 35.625 32.390625 C 35.679688 32.667969 35.703125 32.953125 35.699219 33.234375 C 35.699219 33.375 35.65625 33.511719 35.574219 33.625 C 35.464844 33.777344 35.289062 33.863281 35.101562 33.851562 Z M 35.101562 33.851562 "/>
<path style=" stroke:none;fill-rule:nonzero;fill:rgb(96.078431%,26.27451%,21.568627%);fill-opacity:1;" d="M 38.226562 38.710938 C 37.648438 38.730469 37.085938 38.539062 36.636719 38.171875 C 36.191406 37.804688 35.941406 37.25 35.960938 36.671875 C 35.984375 36.035156 36.195312 35.421875 36.566406 34.90625 C 37.027344 34.210938 37.5625 33.863281 38.171875 33.863281 C 38.53125 33.878906 38.886719 33.960938 39.21875 34.105469 C 39.703125 34.304688 39.945312 34.53125 39.945312 34.792969 C 39.945312 34.929688 39.894531 35.0625 39.800781 35.164062 C 39.699219 35.28125 39.550781 35.347656 39.398438 35.339844 C 39.234375 35.324219 39.078125 35.253906 38.953125 35.140625 C 38.71875 34.992188 38.445312 34.921875 38.171875 34.941406 C 37.949219 34.941406 37.710938 35.160156 37.449219 35.59375 C 37.234375 35.914062 37.105469 36.289062 37.078125 36.675781 C 37.070312 36.953125 37.191406 37.214844 37.410156 37.382812 C 37.644531 37.554688 37.933594 37.644531 38.226562 37.628906 C 38.476562 37.613281 38.71875 37.535156 38.933594 37.410156 C 39.097656 37.304688 39.273438 37.230469 39.460938 37.1875 C 39.613281 37.1875 39.757812 37.25 39.859375 37.363281 C 39.964844 37.464844 40.027344 37.601562 40.027344 37.746094 C 40.027344 37.96875 39.78125 38.195312 39.292969 38.417969 C 38.960938 38.589844 38.597656 38.6875 38.226562 38.710938 Z M 38.226562 38.710938 "/>
</g>
</svg>
