<?xml version="1.0" encoding="UTF-8"?>
<svg xmlns="http://www.w3.org/2000/svg" xmlns:xlink="http://www.w3.org/1999/xlink" width="48pt" height="48pt" viewBox="0 0 48 48" version="1.1">
<g id="surface1">
<path style=" stroke:none;fill-rule:nonzero;fill:rgb(96.078431%,26.27451%,21.568627%);fill-opacity:1;" d="M 37.851562 43.765625 L 39.847656 40.304688 L 43.304688 42.304688 L 40.75 32.757812 L 35.292969 34.21875 Z M 37.851562 43.765625 "/>
<path style=" stroke:none;fill-rule:nonzero;fill:rgb(96.078431%,26.27451%,21.568627%);fill-opacity:1;" d="M 32.738281 43.765625 L 30.738281 40.304688 L 27.28125 42.304688 L 29.839844 32.757812 L 35.292969 34.21875 Z M 32.738281 43.765625 "/>
<path style=" stroke:none;fill-rule:nonzero;fill:rgb(95.294118%,95.686275%,94.901961%);fill-opacity:1;" d="M 1.410156 4.234375 L 46.589844 4.234375 L 46.589844 32.46875 L 1.410156 32.46875 Z M 1.410156 4.234375 "/>
<path style=" stroke:none;fill-rule:nonzero;fill:rgb(100%,92.156863%,23.529412%);fill-opacity:1;" d="M 43.765625 26.824219 C 43.765625 31.5 39.972656 35.292969 35.292969 35.292969 C 30.617188 35.292969 26.824219 31.5 26.824219 26.824219 C 26.824219 22.144531 30.617188 18.351562 35.292969 18.351562 C 39.972656 18.351562 43.765625 22.144531 43.765625 26.824219 Z M 43.765625 26.824219 "/>
<path style=" stroke:none;fill-rule:nonzero;fill:rgb(84.313725%,84.705882%,85.490196%);fill-opacity:1;" d="M 5.648438 9.175781 L 43.765625 9.175781 L 43.765625 10.589844 L 5.648438 10.589844 Z M 5.648438 9.175781 "/>
<path style=" stroke:none;fill-rule:nonzero;fill:rgb(84.313725%,84.705882%,85.490196%);fill-opacity:1;" d="M 5.648438 13.410156 L 43.765625 13.410156 L 43.765625 14.824219 L 5.648438 14.824219 Z M 5.648438 13.410156 "/>
<path style=" stroke:none;fill-rule:nonzero;fill:rgb(84.313725%,84.705882%,85.490196%);fill-opacity:1;" d="M 5.648438 17.648438 L 24 17.648438 L 24 19.058594 L 5.648438 19.058594 Z M 5.648438 17.648438 "/>
<path style=" stroke:none;fill-rule:nonzero;fill:rgb(84.313725%,84.705882%,85.490196%);fill-opacity:1;" d="M 5.648438 21.882812 L 24 21.882812 L 24 23.292969 L 5.648438 23.292969 Z M 5.648438 21.882812 "/>
<path style=" stroke:none;fill-rule:nonzero;fill:rgb(84.313725%,84.705882%,85.490196%);fill-opacity:1;" d="M 5.648438 26.117188 L 24 26.117188 L 24 27.53125 L 5.648438 27.53125 Z M 5.648438 26.117188 "/>
</g>
</svg>
