<?xml version="1.0" encoding="UTF-8"?>
<svg xmlns="http://www.w3.org/2000/svg" xmlns:xlink="http://www.w3.org/1999/xlink" width="48pt" height="48pt" viewBox="0 0 48 48" version="1.1">
<g id="surface1">
<path style=" stroke:none;fill-rule:nonzero;fill:rgb(85.098039%,92.156863%,95.686275%);fill-opacity:1;" d="M 8.152344 22.957031 L 6.328125 22.957031 C 6.015625 22.957031 5.761719 22.703125 5.761719 22.386719 C 5.761719 22.074219 6.015625 21.816406 6.328125 21.816406 L 7.246094 21.816406 C 7.433594 21.816406 7.589844 21.664062 7.589844 21.472656 C 7.589844 21.28125 7.746094 21.128906 7.933594 21.128906 L 9.75 21.128906 C 10.066406 21.128906 10.320312 21.382812 10.320312 21.699219 C 10.320312 22.011719 10.066406 22.265625 9.75 22.265625 L 8.835938 22.265625 C 8.644531 22.265625 8.488281 22.421875 8.488281 22.613281 C 8.488281 22.800781 8.339844 22.953125 8.152344 22.957031 Z M 8.152344 22.957031 "/>
<path style=" stroke:none;fill-rule:nonzero;fill:rgb(85.098039%,92.156863%,95.686275%);fill-opacity:1;" d="M 9.628906 23.851562 L 10.6875 23.851562 C 10.796875 23.851562 10.882812 23.9375 10.882812 24.046875 C 10.882812 24.152344 10.96875 24.238281 11.078125 24.238281 L 11.601562 24.238281 C 11.785156 24.238281 11.933594 24.386719 11.933594 24.570312 C 11.933594 24.753906 11.785156 24.898438 11.601562 24.898438 L 10.550781 24.898438 C 10.445312 24.898438 10.359375 24.8125 10.359375 24.703125 C 10.359375 24.597656 10.269531 24.511719 10.164062 24.511719 L 9.636719 24.511719 C 9.457031 24.511719 9.308594 24.363281 9.308594 24.179688 C 9.308594 23.996094 9.457031 23.851562 9.636719 23.851562 Z M 9.628906 23.851562 "/>
<path style=" stroke:none;fill-rule:nonzero;fill:rgb(85.098039%,92.156863%,95.686275%);fill-opacity:1;" d="M 6.089844 18.074219 L 7.148438 18.074219 C 7.253906 18.074219 7.34375 18.164062 7.34375 18.269531 C 7.34375 18.378906 7.429688 18.464844 7.539062 18.464844 L 8.0625 18.464844 C 8.246094 18.464844 8.390625 18.613281 8.390625 18.796875 C 8.390625 18.976562 8.246094 19.125 8.0625 19.125 L 7.019531 19.125 C 6.914062 19.125 6.824219 19.039062 6.824219 18.929688 C 6.816406 18.824219 6.726562 18.746094 6.621094 18.75 L 6.097656 18.75 C 5.914062 18.75 5.765625 18.601562 5.765625 18.421875 C 5.765625 18.238281 5.914062 18.089844 6.097656 18.089844 Z M 6.089844 18.074219 "/>
<path style=" stroke:none;fill-rule:nonzero;fill:rgb(85.098039%,92.156863%,95.686275%);fill-opacity:1;" d="M 15.757812 25.140625 C 15.757812 25.402344 15.546875 25.613281 15.285156 25.613281 C 15.023438 25.613281 14.8125 25.402344 14.8125 25.140625 C 14.8125 24.878906 15.023438 24.667969 15.285156 24.667969 C 15.546875 24.667969 15.757812 24.878906 15.757812 25.140625 Z M 15.757812 25.140625 "/>
<path style=" stroke:none;fill-rule:nonzero;fill:rgb(85.098039%,92.156863%,95.686275%);fill-opacity:1;" d="M 8.488281 25.246094 C 8.488281 25.496094 8.285156 25.703125 8.03125 25.703125 C 7.78125 25.703125 7.574219 25.496094 7.574219 25.246094 C 7.574219 24.992188 7.78125 24.789062 8.03125 24.789062 C 8.285156 24.789062 8.488281 24.992188 8.488281 25.246094 Z M 8.488281 25.246094 "/>
<path style=" stroke:none;fill-rule:nonzero;fill:rgb(85.098039%,92.156863%,95.686275%);fill-opacity:1;" d="M 6.496094 26.183594 C 6.496094 26.589844 6.164062 26.917969 5.761719 26.917969 C 5.355469 26.917969 5.023438 26.589844 5.023438 26.183594 C 5.023438 25.777344 5.355469 25.449219 5.761719 25.449219 C 6.164062 25.449219 6.496094 25.777344 6.496094 26.183594 Z M 6.496094 26.183594 "/>
<path style=" stroke:none;fill-rule:nonzero;fill:rgb(85.098039%,92.156863%,95.686275%);fill-opacity:1;" d="M 5.558594 20.46875 C 5.558594 20.601562 5.449219 20.707031 5.316406 20.707031 C 5.183594 20.707031 5.078125 20.601562 5.078125 20.46875 C 5.078125 20.335938 5.183594 20.226562 5.316406 20.226562 C 5.449219 20.226562 5.558594 20.335938 5.558594 20.46875 Z M 5.558594 20.46875 "/>
<path style=" stroke:none;fill-rule:nonzero;fill:rgb(85.098039%,92.156863%,95.686275%);fill-opacity:1;" d="M 13.101562 26.183594 C 13.101562 26.34375 12.972656 26.476562 12.808594 26.476562 C 12.648438 26.476562 12.515625 26.34375 12.515625 26.183594 C 12.515625 26.019531 12.648438 25.890625 12.808594 25.890625 C 12.972656 25.890625 13.101562 26.019531 13.101562 26.183594 Z M 13.101562 26.183594 "/>
<path style=" stroke:none;fill-rule:nonzero;fill:rgb(85.098039%,92.156863%,95.686275%);fill-opacity:1;" d="M 11.386719 27.089844 C 11.386719 27.511719 11.042969 27.855469 10.621094 27.855469 C 10.199219 27.855469 9.855469 27.511719 9.855469 27.089844 C 9.855469 26.667969 10.199219 26.324219 10.621094 26.324219 C 11.042969 26.324219 11.386719 26.667969 11.386719 27.089844 Z M 11.386719 27.089844 "/>
<path style=" stroke:none;fill-rule:nonzero;fill:rgb(85.098039%,92.156863%,95.686275%);fill-opacity:1;" d="M 13.851562 24.113281 C 13.851562 24.257812 13.734375 24.375 13.589844 24.375 C 13.445312 24.375 13.328125 24.257812 13.328125 24.113281 C 13.328125 23.96875 13.445312 23.851562 13.589844 23.851562 C 13.734375 23.851562 13.851562 23.96875 13.851562 24.113281 Z M 13.851562 24.113281 "/>
<path style=" stroke:none;fill-rule:nonzero;fill:rgb(85.098039%,92.156863%,95.686275%);fill-opacity:1;" d="M 10.199219 7.222656 C 10.199219 7.015625 10.03125 6.847656 9.824219 6.847656 L 7.824219 6.847656 C 7.480469 6.847656 7.199219 7.125 7.199219 7.46875 C 7.199219 7.8125 7.480469 8.09375 7.824219 8.09375 L 8.820312 8.09375 C 9.027344 8.09375 9.195312 8.261719 9.195312 8.46875 C 9.195312 8.675781 9.363281 8.84375 9.570312 8.84375 L 11.574219 8.84375 C 11.917969 8.84375 12.195312 8.5625 12.195312 8.21875 C 12.195312 7.875 11.917969 7.597656 11.574219 7.597656 L 10.574219 7.597656 C 10.367188 7.597656 10.199219 7.429688 10.199219 7.222656 Z M 10.199219 7.222656 "/>
<path style=" stroke:none;fill-rule:nonzero;fill:rgb(85.098039%,92.156863%,95.686275%);fill-opacity:1;" d="M 6.578125 10.050781 C 6.578125 9.929688 6.675781 9.832031 6.796875 9.832031 L 7.949219 9.832031 C 8.148438 9.832031 8.308594 9.992188 8.308594 10.191406 C 8.308594 10.390625 8.148438 10.550781 7.949219 10.550781 L 7.371094 10.550781 C 7.253906 10.550781 7.15625 10.648438 7.15625 10.769531 C 7.15625 10.890625 7.058594 10.988281 6.9375 10.988281 L 5.773438 10.988281 C 5.578125 10.988281 5.414062 10.828125 5.414062 10.628906 C 5.414062 10.429688 5.578125 10.265625 5.773438 10.265625 L 6.351562 10.265625 C 6.410156 10.269531 6.46875 10.246094 6.511719 10.207031 C 6.554688 10.164062 6.578125 10.109375 6.578125 10.050781 Z M 6.578125 10.050781 "/>
<path style=" stroke:none;fill-rule:nonzero;fill:rgb(85.098039%,92.156863%,95.686275%);fill-opacity:1;" d="M 9.570312 15.984375 C 9.570312 16.273438 9.335938 16.507812 9.046875 16.507812 C 8.753906 16.507812 8.519531 16.273438 8.519531 15.984375 C 8.519531 15.691406 8.753906 15.457031 9.046875 15.457031 C 9.335938 15.457031 9.570312 15.691406 9.570312 15.984375 Z M 9.570312 15.984375 "/>
<path style=" stroke:none;fill-rule:nonzero;fill:rgb(85.098039%,92.156863%,95.686275%);fill-opacity:1;" d="M 10.207031 11.363281 C 10.207031 11.640625 9.984375 11.863281 9.703125 11.863281 C 9.425781 11.863281 9.203125 11.640625 9.203125 11.363281 C 9.203125 11.085938 9.425781 10.859375 9.703125 10.859375 C 9.984375 10.859375 10.207031 11.085938 10.207031 11.363281 Z M 10.207031 11.363281 "/>
<path style=" stroke:none;fill-rule:nonzero;fill:rgb(85.098039%,92.156863%,95.686275%);fill-opacity:1;" d="M 13.011719 12.390625 C 13.011719 12.835938 12.648438 13.199219 12.203125 13.199219 C 11.753906 13.199219 11.390625 12.835938 11.390625 12.390625 C 11.390625 11.941406 11.753906 11.578125 12.203125 11.578125 C 12.648438 11.578125 13.011719 11.941406 13.011719 12.390625 Z M 13.011719 12.390625 "/>
<path style=" stroke:none;fill-rule:nonzero;fill:rgb(85.098039%,92.156863%,95.686275%);fill-opacity:1;" d="M 12.953125 6.113281 C 12.953125 6.257812 12.835938 6.375 12.691406 6.375 C 12.546875 6.375 12.425781 6.257812 12.425781 6.113281 C 12.425781 5.96875 12.546875 5.851562 12.691406 5.851562 C 12.835938 5.851562 12.953125 5.96875 12.953125 6.113281 Z M 12.953125 6.113281 "/>
<path style=" stroke:none;fill-rule:nonzero;fill:rgb(85.098039%,92.156863%,95.686275%);fill-opacity:1;" d="M 4.777344 12.390625 C 4.777344 12.566406 4.632812 12.710938 4.453125 12.710938 C 4.277344 12.710938 4.132812 12.566406 4.132812 12.390625 C 4.132812 12.210938 4.277344 12.066406 4.453125 12.066406 C 4.632812 12.066406 4.777344 12.210938 4.777344 12.390625 Z M 4.777344 12.390625 "/>
<path style=" stroke:none;fill-rule:nonzero;fill:rgb(85.098039%,92.156863%,95.686275%);fill-opacity:1;" d="M 7.703125 13.386719 C 7.703125 13.851562 7.328125 14.226562 6.863281 14.226562 C 6.398438 14.226562 6.023438 13.851562 6.023438 13.386719 C 6.023438 12.921875 6.398438 12.546875 6.863281 12.546875 C 7.328125 12.546875 7.703125 12.921875 7.703125 13.386719 Z M 7.703125 13.386719 "/>
<path style=" stroke:none;fill-rule:nonzero;fill:rgb(85.098039%,92.156863%,95.686275%);fill-opacity:1;" d="M 3.886719 10.117188 C 3.886719 10.277344 3.753906 10.410156 3.59375 10.410156 C 3.429688 10.410156 3.300781 10.277344 3.300781 10.117188 C 3.300781 9.957031 3.429688 9.824219 3.59375 9.824219 C 3.753906 9.824219 3.886719 9.957031 3.886719 10.117188 Z M 3.886719 10.117188 "/>
<path style=" stroke:none;fill-rule:nonzero;fill:rgb(77.647059%,88.627451%,95.686275%);fill-opacity:1;" d="M 45.75 45.75 L 45.75 25.3125 C 45.75 24.945312 45.449219 24.644531 45.082031 24.644531 L 44.386719 24.644531 C 44.015625 24.644531 43.71875 24.945312 43.71875 25.3125 L 43.71875 27 C 43.71875 27.367188 43.417969 27.667969 43.050781 27.667969 L 40.800781 27.667969 C 40.429688 27.667969 40.132812 27.964844 40.132812 28.335938 L 40.132812 36.136719 C 40.132812 36.503906 39.832031 36.800781 39.464844 36.800781 L 38.054688 36.800781 C 37.6875 36.800781 37.386719 37.101562 37.386719 37.46875 L 37.386719 42.375 C 37.386719 42.742188 37.089844 43.042969 36.71875 43.042969 L 36.046875 43.042969 C 35.675781 43.042969 35.378906 42.742188 35.378906 42.375 L 35.378906 41.519531 C 35.378906 41.152344 35.078125 40.851562 34.710938 40.851562 L 34.101562 40.851562 C 33.734375 40.851562 33.433594 40.554688 33.433594 40.183594 L 33.433594 39 C 33.433594 38.632812 33.136719 38.332031 32.765625 38.332031 L 29.175781 38.332031 C 28.804688 38.332031 28.507812 38.035156 28.507812 37.664062 L 28.507812 36.984375 C 28.507812 36.613281 28.207031 36.316406 27.839844 36.316406 L 16.28125 36.316406 C 16.105469 36.316406 15.933594 36.386719 15.808594 36.511719 L 12.703125 39.613281 C 12.578125 39.738281 12.410156 39.808594 12.234375 39.808594 L 11.300781 39.808594 C 10.933594 39.808594 10.636719 40.109375 10.636719 40.476562 L 10.636719 42.726562 C 10.636719 43.097656 10.335938 43.394531 9.96875 43.394531 L 9.585938 43.394531 C 9.214844 43.394531 8.917969 43.097656 8.917969 42.726562 L 8.917969 42.375 C 8.917969 42.007812 8.617188 41.707031 8.25 41.707031 L 7.761719 41.707031 C 7.394531 41.707031 7.09375 41.410156 7.09375 41.039062 C 7.09375 40.671875 6.796875 40.371094 6.425781 40.371094 L 2.953125 40.371094 C 2.585938 40.371094 2.289062 40.671875 2.289062 41.039062 L 2.289062 45.75 Z M 45.75 45.75 "/>
<path style="fill:none;stroke-width:2;stroke-linecap:round;stroke-linejoin:round;stroke:rgb(1.568627%,7.058824%,33.72549%);stroke-opacity:1;stroke-miterlimit:4;" d="M 61 61.03125 L 3 61.03125 " transform="matrix(0.75,0,0,0.75,0,0)"/>
<path style=" stroke:none;fill-rule:nonzero;fill:rgb(85.882353%,85.098039%,85.098039%);fill-opacity:1;" d="M 42.9375 28.964844 C 47.785156 21.546875 46.242188 11.664062 39.363281 6.078125 C 32.484375 0.492188 22.496094 1.007812 16.230469 7.273438 C 9.964844 13.539062 9.449219 23.527344 15.035156 30.40625 C 20.621094 37.285156 30.503906 38.828125 37.921875 33.984375 C 38.632812 33.507812 39.542969 33.457031 40.304688 33.847656 L 43.5 35.511719 C 43.773438 35.609375 44.078125 35.542969 44.285156 35.335938 C 44.492188 35.132812 44.558594 34.824219 44.460938 34.550781 L 42.796875 31.351562 C 42.40625 30.585938 42.460938 29.675781 42.9375 28.964844 Z M 42.9375 28.964844 "/>
<path style=" stroke:none;fill-rule:nonzero;fill:rgb(75.686275%,74.901961%,74.901961%);fill-opacity:1;" d="M 42.136719 16.628906 L 36.1875 10.679688 L 21.382812 29.0625 L 25.035156 32.714844 C 25.894531 33.574219 26.378906 34.738281 26.378906 35.953125 L 26.378906 36.703125 C 30.417969 37.195312 34.503906 36.242188 37.914062 34.011719 C 38.621094 33.539062 39.53125 33.488281 40.289062 33.878906 L 43.5 35.511719 C 43.773438 35.609375 44.078125 35.542969 44.285156 35.335938 C 44.492188 35.132812 44.558594 34.824219 44.460938 34.550781 L 42.796875 31.351562 C 42.40625 30.59375 42.453125 29.6875 42.921875 28.980469 C 43.324219 28.367188 43.6875 27.726562 44.011719 27.066406 C 45.664062 23.542969 44.910156 19.359375 42.136719 16.628906 Z M 42.136719 16.628906 "/>
<path style=" stroke:none;fill-rule:nonzero;fill:rgb(77.254902%,100%,94.117647%);fill-opacity:1;" d="M 42.796875 31.351562 C 42.40625 30.589844 42.457031 29.675781 42.929688 28.964844 C 45.523438 25.003906 46.375 20.15625 45.289062 15.550781 C 44.199219 10.941406 41.269531 6.984375 37.175781 4.605469 C 44.914062 9.914062 46.992188 20.433594 41.851562 28.28125 C 41.375 28.996094 41.324219 29.90625 41.714844 30.667969 L 43.378906 33.871094 C 43.480469 34.144531 43.410156 34.449219 43.203125 34.65625 C 43 34.859375 42.695312 34.929688 42.421875 34.828125 L 39.21875 33.164062 C 38.457031 32.773438 37.542969 32.828125 36.832031 33.300781 C 33.492188 35.476562 29.5 36.433594 25.539062 36 C 23.15625 35.75 20.855469 34.996094 18.789062 33.796875 C 21.117188 35.402344 23.8125 36.402344 26.625 36.703125 C 30.589844 37.128906 34.578125 36.167969 37.914062 33.984375 C 38.625 33.507812 39.535156 33.457031 40.296875 33.847656 L 43.5 35.511719 C 43.773438 35.609375 44.078125 35.542969 44.285156 35.335938 C 44.492188 35.132812 44.558594 34.824219 44.460938 34.550781 Z M 42.796875 31.351562 "/>
<path style=" stroke:none;fill-rule:nonzero;fill:rgb(92.941176%,92.941176%,92.941176%);fill-opacity:1;" d="M 13.019531 22.199219 C 12.609375 17.144531 14.4375 12.167969 18.023438 8.578125 C 21.609375 4.992188 26.589844 3.160156 31.640625 3.570312 C 34.4375 3.796875 37.128906 4.710938 39.488281 6.226562 C 34.511719 2.25 27.75 1.339844 21.902344 3.855469 C 16.050781 6.375 12.0625 11.910156 11.53125 18.253906 C 10.996094 24.601562 14.003906 30.726562 19.351562 34.183594 C 15.691406 31.222656 13.40625 26.890625 13.019531 22.199219 Z M 13.019531 22.199219 "/>
<path style=" stroke:none;fill-rule:nonzero;fill:rgb(100%,100%,100%);fill-opacity:1;" d="M 12.269531 21.578125 C 11.859375 16.523438 13.6875 11.542969 17.273438 7.957031 C 20.859375 4.371094 25.839844 2.539062 30.890625 2.949219 C 33.492188 3.15625 36.007812 3.960938 38.25 5.296875 C 35.773438 3.554688 32.875 2.503906 29.859375 2.25 C 21.878906 1.550781 14.46875 6.433594 11.964844 14.042969 C 9.460938 21.648438 12.523438 29.980469 19.359375 34.15625 L 18.960938 33.816406 C 15.105469 30.859375 12.675781 26.417969 12.269531 21.578125 Z M 12.269531 21.578125 "/>
<path style="fill:none;stroke-width:2;stroke-linecap:round;stroke-linejoin:round;stroke:rgb(1.568627%,7.058824%,33.72549%);stroke-opacity:1;stroke-miterlimit:4;" d="M 57.25 38.619792 C 63.713542 28.729167 61.65625 15.552083 52.484375 8.104167 C 43.3125 0.65625 29.994792 1.34375 21.640625 9.697917 C 13.286458 18.052083 12.598958 31.369792 20.046875 40.541667 C 27.494792 49.713542 40.671875 51.770833 50.5625 45.3125 C 51.510417 44.677083 52.723958 44.609375 53.739583 45.130208 L 58 47.348958 C 58.364583 47.479167 58.770833 47.390625 59.046875 47.114583 C 59.322917 46.84375 59.411458 46.432292 59.28125 46.067708 L 57.0625 41.802083 C 56.541667 40.78125 56.614583 39.567708 57.25 38.619792 Z M 57.25 38.619792 " transform="matrix(0.75,0,0,0.75,0,0)"/>
<path style=" stroke:none;fill-rule:nonzero;fill:rgb(36.470588%,52.54902%,84.705882%);fill-opacity:1;" d="M 39.652344 19.515625 C 39.652344 25.695312 34.640625 30.703125 28.460938 30.703125 C 22.28125 30.703125 17.273438 25.695312 17.273438 19.515625 C 17.273438 13.335938 22.28125 8.324219 28.460938 8.324219 C 34.640625 8.324219 39.652344 13.335938 39.652344 19.515625 Z M 39.652344 19.515625 "/>
<path style=" stroke:none;fill-rule:nonzero;fill:rgb(36.470588%,52.54902%,84.705882%);fill-opacity:1;" d="M 38.191406 20.519531 C 38.191406 25.890625 33.835938 30.246094 28.460938 30.246094 C 23.089844 30.246094 18.734375 25.890625 18.734375 20.519531 C 18.734375 15.148438 23.089844 10.792969 28.460938 10.792969 C 33.835938 10.792969 38.191406 15.148438 38.191406 20.519531 Z M 38.191406 20.519531 "/>
<path style=" stroke:none;fill-rule:nonzero;fill:rgb(46.666667%,63.921569%,90.980392%);fill-opacity:1;" d="M 37.679688 13.175781 L 36.847656 13.816406 C 36.410156 14.15625 36.308594 14.773438 36.613281 15.234375 C 36.773438 15.472656 37.027344 15.632812 37.3125 15.679688 C 37.59375 15.726562 37.886719 15.65625 38.113281 15.480469 L 38.707031 15.03125 C 38.425781 14.382812 38.082031 13.761719 37.679688 13.175781 Z M 37.679688 13.175781 "/>
<path style=" stroke:none;fill-rule:nonzero;fill:rgb(46.666667%,63.921569%,90.980392%);fill-opacity:1;" d="M 37.671875 17.386719 C 39.265625 21.96875 37.246094 27.023438 32.9375 29.25 C 28.625 31.476562 23.335938 30.195312 20.519531 26.242188 C 17.707031 22.289062 18.226562 16.871094 21.738281 13.527344 C 25.253906 10.179688 30.691406 9.925781 34.5 12.929688 C 34.878906 13.230469 35.417969 13.230469 35.796875 12.929688 L 36.847656 12.128906 C 33.03125 7.777344 26.527344 7.054688 21.855469 10.46875 C 17.179688 13.882812 15.886719 20.296875 18.867188 25.253906 C 21.851562 30.214844 28.128906 32.074219 33.332031 29.542969 C 38.535156 27.011719 40.945312 20.925781 38.886719 15.515625 L 37.996094 16.199219 C 37.640625 16.484375 37.511719 16.960938 37.671875 17.386719 Z M 37.671875 17.386719 "/>
<path style=" stroke:none;fill-rule:nonzero;fill:rgb(29.019608%,46.27451%,80.784314%);fill-opacity:1;" d="M 37.53125 21.179688 C 37.53125 26.1875 33.46875 30.246094 28.460938 30.246094 C 23.453125 30.246094 19.394531 26.1875 19.394531 21.179688 C 19.394531 16.171875 23.453125 12.113281 28.460938 12.113281 C 33.46875 12.113281 37.53125 16.171875 37.53125 21.179688 Z M 37.53125 21.179688 "/>
<path style=" stroke:none;fill-rule:nonzero;fill:rgb(19.607843%,40.784314%,74.901961%);fill-opacity:1;" d="M 37.078125 19.605469 C 36.886719 19.753906 36.691406 19.90625 36.480469 20.039062 C 36.265625 20.195312 35.988281 20.226562 35.746094 20.125 C 35.503906 20.023438 35.332031 19.796875 35.296875 19.539062 C 35.1875 18.804688 34.984375 18.089844 34.695312 17.40625 C 34.628906 17.289062 34.527344 17.191406 34.410156 17.121094 L 32.675781 16.132812 C 32.492188 16.019531 32.269531 15.992188 32.0625 16.058594 C 31.917969 16.101562 31.773438 16.136719 31.628906 16.164062 C 31.425781 16.195312 31.246094 16.3125 31.132812 16.480469 C 31.015625 16.652344 30.976562 16.863281 31.019531 17.0625 C 31.101562 17.496094 31.207031 18.066406 31.296875 18.683594 C 31.320312 18.898438 31.4375 19.097656 31.617188 19.21875 C 31.796875 19.34375 32.023438 19.382812 32.234375 19.328125 C 32.449219 19.265625 32.679688 19.304688 32.863281 19.425781 C 33.046875 19.550781 33.164062 19.75 33.1875 19.972656 C 33.4375 21.789062 33.5 23.625 33.375 25.453125 C 33.332031 25.753906 33.476562 26.050781 33.734375 26.203125 L 35.648438 27.382812 C 35.734375 27.4375 35.808594 27.511719 35.863281 27.601562 C 37.488281 25.273438 37.921875 22.320312 37.035156 19.628906 Z M 37.078125 19.605469 "/>
<path style=" stroke:none;fill-rule:nonzero;fill:rgb(19.607843%,40.784314%,74.901961%);fill-opacity:1;" d="M 28.671875 26.25 C 28.796875 26.457031 29.035156 26.566406 29.273438 26.535156 C 29.511719 26.503906 29.707031 26.332031 29.773438 26.101562 C 30.039062 25.089844 30.167969 24.046875 30.15625 23.003906 C 30.160156 22.210938 30.089844 21.425781 29.949219 20.648438 C 29.90625 20.449219 29.78125 20.28125 29.601562 20.1875 C 29.421875 20.089844 29.210938 20.082031 29.023438 20.160156 C 28.539062 20.355469 28.039062 20.5 27.523438 20.59375 C 27.242188 20.648438 27.027344 20.878906 26.992188 21.164062 C 26.910156 21.773438 26.871094 22.382812 26.871094 22.996094 C 26.871094 23.796875 26.941406 24.597656 27.089844 25.386719 C 27.136719 25.648438 27.351562 25.851562 27.613281 25.882812 L 28.214844 25.949219 C 28.40625 25.972656 28.578125 26.082031 28.671875 26.25 Z M 28.671875 26.25 "/>
<path style=" stroke:none;fill-rule:nonzero;fill:rgb(19.607843%,40.784314%,74.901961%);fill-opacity:1;" d="M 19.726562 22.042969 C 19.726562 24.1875 20.121094 26.429688 21.367188 27.984375 L 23.289062 26.4375 C 23.757812 26.0625 24 25.472656 23.925781 24.878906 C 23.761719 23.839844 23.789062 22.78125 24 21.75 C 24.132812 21.230469 24.019531 20.679688 23.699219 20.25 L 23.535156 20.039062 C 23.160156 19.550781 23.070312 18.902344 23.300781 18.328125 C 23.6875 17.433594 24.144531 16.574219 24.667969 15.75 C 24.949219 15.300781 25.015625 14.75 24.839844 14.25 L 24.75 13.941406 C 21.675781 15.472656 19.730469 18.609375 19.726562 22.042969 Z M 19.726562 22.042969 "/>
<path style=" stroke:none;fill-rule:nonzero;fill:rgb(46.666667%,73.72549%,58.039216%);fill-opacity:1;" d="M 35.773438 27.984375 C 39.132812 25.078125 40.457031 20.460938 39.148438 16.214844 C 38.410156 17.222656 37.507812 18.097656 36.480469 18.808594 C 36.265625 18.964844 35.988281 18.996094 35.746094 18.894531 C 35.503906 18.792969 35.332031 18.570312 35.296875 18.308594 C 35.1875 17.574219 34.984375 16.859375 34.695312 16.175781 C 34.628906 16.058594 34.527344 15.960938 34.410156 15.890625 L 32.675781 14.902344 C 32.492188 14.789062 32.269531 14.761719 32.0625 14.828125 C 31.917969 14.871094 31.773438 14.90625 31.628906 14.933594 C 31.425781 14.964844 31.246094 15.082031 31.132812 15.253906 C 31.015625 15.421875 30.976562 15.632812 31.019531 15.832031 C 31.101562 16.265625 31.207031 16.835938 31.296875 17.453125 C 31.320312 17.671875 31.4375 17.867188 31.617188 17.992188 C 31.796875 18.113281 32.023438 18.152344 32.234375 18.097656 C 32.453125 18.023438 32.695312 18.054688 32.890625 18.179688 C 33.082031 18.308594 33.207031 18.519531 33.226562 18.75 C 33.476562 20.566406 33.539062 22.402344 33.414062 24.234375 C 33.371094 24.53125 33.511719 24.828125 33.773438 24.984375 L 35.683594 26.160156 C 35.964844 26.339844 36.09375 26.679688 36 27 Z M 35.773438 27.984375 "/>
<path style=" stroke:none;fill-rule:nonzero;fill:rgb(55.294118%,78.823529%,65.882353%);fill-opacity:1;" d="M 39.621094 18.699219 C 39.621094 18.628906 39.621094 18.570312 39.621094 18.503906 C 39.621094 18.316406 39.585938 18.128906 39.554688 17.941406 C 39.523438 17.753906 39.554688 17.746094 39.511719 17.648438 C 39.464844 17.550781 39.457031 17.347656 39.425781 17.199219 C 39.398438 17.046875 39.382812 16.988281 39.359375 16.882812 C 39.335938 16.777344 39.285156 16.597656 39.246094 16.453125 L 39.179688 16.214844 C 38.765625 16.765625 38.308594 17.28125 37.816406 17.761719 C 38.160156 18.929688 38.285156 20.152344 38.183594 21.367188 C 38.015625 23.292969 37.273438 25.121094 36.050781 26.617188 C 36.085938 26.742188 36.085938 26.871094 36.050781 26.992188 L 35.804688 27.96875 C 36.902344 27.019531 37.804688 25.871094 38.46875 24.585938 L 38.519531 24.480469 C 38.648438 24.21875 38.765625 23.953125 38.878906 23.675781 L 38.917969 23.578125 C 39.007812 23.347656 39.089844 23.113281 39.164062 22.875 L 39.234375 22.65625 C 39.308594 22.402344 39.371094 22.152344 39.425781 21.90625 C 39.425781 21.824219 39.425781 21.742188 39.472656 21.660156 C 39.515625 21.414062 39.5625 21.164062 39.59375 20.910156 L 39.59375 20.804688 C 39.59375 20.585938 39.609375 20.367188 39.644531 20.152344 C 39.644531 20.085938 39.644531 20.023438 39.644531 19.957031 C 39.644531 19.890625 39.644531 19.648438 39.644531 19.5 C 39.644531 19.351562 39.636719 18.953125 39.621094 18.699219 Z M 39.621094 18.699219 "/>
<path style=" stroke:none;fill-rule:nonzero;fill:rgb(40%,68.627451%,51.372549%);fill-opacity:1;" d="M 37.078125 18.367188 C 36.886719 18.515625 36.691406 18.667969 36.480469 18.800781 C 36.265625 18.957031 35.988281 18.988281 35.746094 18.886719 C 35.503906 18.785156 35.332031 18.5625 35.296875 18.300781 C 35.1875 17.566406 34.984375 16.851562 34.695312 16.171875 C 34.628906 16.050781 34.527344 15.953125 34.410156 15.886719 L 32.675781 14.894531 C 32.492188 14.78125 32.269531 14.753906 32.0625 14.820312 C 31.917969 14.863281 31.773438 14.898438 31.628906 14.925781 C 31.425781 14.960938 31.246094 15.074219 31.132812 15.246094 C 31.015625 15.414062 30.976562 15.625 31.019531 15.824219 C 31.101562 16.261719 31.207031 16.828125 31.296875 17.445312 C 31.320312 17.664062 31.4375 17.859375 31.617188 17.984375 C 31.796875 18.105469 32.023438 18.144531 32.234375 18.089844 C 32.457031 18.015625 32.699219 18.046875 32.894531 18.175781 C 33.085938 18.304688 33.210938 18.515625 33.226562 18.75 C 33.476562 20.566406 33.539062 22.402344 33.414062 24.234375 C 33.371094 24.53125 33.511719 24.828125 33.773438 24.984375 L 35.683594 26.160156 C 35.773438 26.214844 35.847656 26.289062 35.902344 26.378906 C 37.527344 24.054688 37.960938 21.097656 37.074219 18.40625 Z M 37.078125 18.367188 "/>
<path style=" stroke:none;fill-rule:nonzero;fill:rgb(40%,68.627451%,51.372549%);fill-opacity:1;" d="M 28.621094 25.5 C 28.746094 25.707031 28.980469 25.816406 29.21875 25.785156 C 29.460938 25.753906 29.65625 25.582031 29.722656 25.351562 C 29.988281 24.339844 30.117188 23.296875 30.105469 22.253906 C 30.109375 21.460938 30.039062 20.675781 29.894531 19.898438 C 29.855469 19.699219 29.726562 19.53125 29.550781 19.4375 C 29.371094 19.339844 29.160156 19.332031 28.972656 19.410156 C 28.488281 19.605469 27.984375 19.75 27.472656 19.84375 C 27.191406 19.898438 26.972656 20.128906 26.941406 20.414062 C 26.859375 21.023438 26.816406 21.632812 26.820312 22.246094 C 26.816406 23.046875 26.890625 23.847656 27.039062 24.636719 C 27.085938 24.898438 27.296875 25.101562 27.5625 25.132812 L 28.164062 25.199219 C 28.355469 25.222656 28.523438 25.332031 28.621094 25.5 Z M 28.621094 25.5 "/>
<path style=" stroke:none;fill-rule:nonzero;fill:rgb(46.666667%,73.72549%,58.039216%);fill-opacity:1;" d="M 17.25 19.5 C 17.246094 22.496094 18.445312 25.363281 20.578125 27.464844 L 22.941406 25.558594 C 23.421875 25.191406 23.671875 24.601562 23.601562 24 C 23.449219 22.964844 23.488281 21.910156 23.707031 20.886719 C 23.839844 20.367188 23.730469 19.816406 23.40625 19.386719 L 23.25 19.199219 C 22.875 18.710938 22.785156 18.0625 23.015625 17.488281 C 23.390625 16.574219 23.835938 15.691406 24.351562 14.851562 C 24.636719 14.402344 24.699219 13.851562 24.523438 13.351562 L 23.226562 9.601562 C 19.550781 11.535156 17.25 15.347656 17.25 19.5 Z M 17.25 19.5 "/>
<path style=" stroke:none;fill-rule:nonzero;fill:rgb(40%,68.627451%,51.372549%);fill-opacity:1;" d="M 19.394531 21.179688 C 19.390625 23.238281 20.097656 25.238281 21.390625 26.84375 L 22.964844 25.566406 C 23.4375 25.191406 23.679688 24.597656 23.601562 24 C 23.449219 22.964844 23.488281 21.910156 23.707031 20.886719 C 23.839844 20.367188 23.730469 19.816406 23.40625 19.386719 L 23.25 19.199219 C 22.875 18.710938 22.785156 18.0625 23.015625 17.488281 C 23.390625 16.574219 23.835938 15.691406 24.351562 14.851562 C 24.636719 14.402344 24.699219 13.851562 24.523438 13.351562 L 24.425781 13.058594 C 21.34375 14.589844 19.390625 17.734375 19.394531 21.179688 Z M 19.394531 21.179688 "/>
<path style=" stroke:none;fill-rule:nonzero;fill:rgb(46.666667%,73.72549%,58.039216%);fill-opacity:1;" d="M 22.003906 26.347656 C 21.304688 24.988281 20.933594 23.480469 20.925781 21.953125 C 21.746094 22.445312 22.617188 22.84375 23.527344 23.136719 C 23.527344 22.972656 23.527344 22.816406 23.527344 22.664062 C 22.613281 22.359375 21.738281 21.945312 20.925781 21.425781 C 20.980469 18.046875 22.050781 14.761719 24 12 L 23.820312 11.476562 C 21.722656 14.265625 20.539062 17.636719 20.4375 21.128906 C 19.105469 20.234375 18.152344 18.878906 17.761719 17.324219 C 18.507812 14.261719 20.582031 11.691406 23.421875 10.320312 L 23.28125 9.898438 C 21.6875 10.667969 20.296875 11.800781 19.222656 13.207031 C 18.285156 14.566406 17.664062 16.117188 17.398438 17.746094 C 17.910156 19.359375 18.972656 20.746094 20.398438 21.660156 C 20.355469 23.402344 20.757812 25.128906 21.570312 26.671875 Z M 22.003906 26.347656 "/>
<path style=" stroke:none;fill-rule:nonzero;fill:rgb(55.294118%,78.823529%,65.882353%);fill-opacity:1;" d="M 20.601562 27.480469 L 21.203125 26.992188 C 19.199219 24.75 18.347656 21.707031 18.894531 18.753906 C 19.445312 15.796875 21.328125 13.261719 24 11.886719 L 23.25 9.636719 C 21.152344 10.761719 19.464844 12.515625 18.421875 14.65625 L 18.421875 14.714844 C 18.285156 14.996094 18.164062 15.28125 18.050781 15.578125 C 17.941406 15.871094 17.851562 16.171875 17.765625 16.46875 C 17.765625 16.546875 17.730469 16.621094 17.707031 16.703125 C 17.652344 16.917969 17.601562 17.136719 17.558594 17.355469 C 17.558594 17.464844 17.539062 17.574219 17.496094 17.683594 C 17.496094 17.910156 17.4375 18.128906 17.414062 18.351562 C 17.414062 18.441406 17.414062 18.53125 17.414062 18.621094 C 17.414062 18.710938 17.414062 18.75 17.414062 18.816406 C 17.414062 18.996094 17.414062 19.175781 17.414062 19.359375 C 17.414062 19.539062 17.414062 19.558594 17.414062 19.664062 C 17.414062 19.769531 17.414062 19.84375 17.414062 19.925781 C 17.414062 20.011719 17.414062 20.152344 17.414062 20.273438 C 17.414062 20.390625 17.414062 20.445312 17.414062 20.535156 C 17.414062 20.625 17.414062 20.761719 17.453125 20.871094 C 17.488281 20.984375 17.453125 21.039062 17.453125 21.128906 C 17.453125 21.21875 17.488281 21.359375 17.511719 21.472656 C 17.535156 21.585938 17.511719 21.628906 17.558594 21.710938 C 17.601562 21.796875 17.609375 21.953125 17.640625 22.074219 C 17.671875 22.191406 17.640625 22.214844 17.691406 22.28125 C 17.738281 22.46875 17.789062 22.648438 17.851562 22.828125 L 17.933594 23.078125 L 18.039062 23.371094 L 18.148438 23.65625 L 18.246094 23.902344 L 18.382812 24.1875 L 18.488281 24.414062 L 18.636719 24.703125 L 18.75 24.914062 L 18.914062 25.199219 L 19.035156 25.394531 L 19.222656 25.679688 L 19.34375 25.859375 L 19.546875 26.144531 L 19.671875 26.308594 L 19.898438 26.59375 L 20.015625 26.738281 L 20.265625 27.023438 L 20.378906 27.140625 L 20.65625 27.425781 Z M 20.601562 27.480469 "/>
<path style=" stroke:none;fill-rule:nonzero;fill:rgb(46.666667%,63.921569%,90.980392%);fill-opacity:1;" d="M 39.609375 17.25 C 38.441406 12.550781 34.398438 9.125 29.574219 8.746094 C 28.824219 8.695312 28.070312 8.695312 27.324219 8.746094 C 22.511719 9.140625 18.488281 12.5625 17.324219 17.25 L 17.324219 17.339844 C 17.765625 19.128906 18.890625 20.675781 20.460938 21.644531 C 20.460938 28.085938 24.609375 30.390625 28.46875 30.390625 C 32.332031 30.390625 36.449219 28.085938 36.472656 21.644531 C 38.039062 20.675781 39.164062 19.128906 39.609375 17.339844 Z M 28.5 29.949219 C 27.367188 29.949219 26.070312 28.261719 25.769531 23.691406 C 27.578125 24.007812 29.429688 24.007812 31.238281 23.691406 C 30.890625 28.265625 29.59375 29.949219 28.5 29.949219 Z M 28.5 23.488281 C 27.566406 23.492188 26.632812 23.414062 25.710938 23.25 C 25.710938 22.734375 25.664062 22.183594 25.664062 21.59375 C 25.664062 15.59375 27.105469 9.285156 28.460938 9.285156 C 29.820312 9.285156 31.261719 15.613281 31.261719 21.59375 C 31.261719 22.183594 31.261719 22.726562 31.214844 23.25 C 30.320312 23.40625 29.410156 23.488281 28.5 23.488281 Z M 27.539062 9.398438 C 26.039062 11.210938 25.207031 17.136719 25.207031 21.59375 C 25.207031 22.140625 25.207031 22.65625 25.246094 23.152344 C 23.707031 22.847656 22.242188 22.257812 20.917969 21.421875 C 21 16.296875 23.835938 10.273438 27.539062 9.398438 Z M 29.386719 9.398438 C 33.089844 10.28125 35.949219 16.304688 36.015625 21.398438 C 34.691406 22.234375 33.222656 22.824219 31.6875 23.128906 C 31.6875 22.628906 31.726562 22.109375 31.726562 21.570312 C 31.726562 17.136719 30.855469 11.210938 29.386719 9.398438 Z M 17.78125 17.300781 C 18.816406 13.160156 22.207031 10.027344 26.414062 9.324219 C 23.046875 10.925781 20.609375 16.265625 20.460938 21.113281 C 19.128906 20.21875 18.171875 18.859375 17.78125 17.300781 Z M 20.925781 21.945312 C 22.265625 22.746094 23.734375 23.304688 25.265625 23.601562 C 25.460938 26.730469 26.128906 28.898438 27.171875 29.84375 C 23.378906 29.316406 21.046875 26.398438 20.925781 21.953125 Z M 29.761719 29.851562 C 30.796875 28.90625 31.460938 26.738281 31.664062 23.609375 C 33.195312 23.3125 34.660156 22.753906 36 21.953125 C 35.878906 26.398438 33.546875 29.316406 29.761719 29.851562 Z M 36.464844 21.105469 C 36.316406 16.261719 33.878906 10.921875 30.511719 9.324219 C 34.722656 10.023438 38.117188 13.160156 39.148438 17.300781 C 38.753906 18.859375 37.800781 20.210938 36.464844 21.105469 Z M 36.464844 21.105469 "/>
<path style=" stroke:none;fill-rule:nonzero;fill:rgb(63.921569%,88.627451%,74.509804%);fill-opacity:1;" d="M 39.511719 17.722656 C 39.425781 17.214844 39.308594 16.714844 39.15625 16.222656 L 38.925781 16.523438 C 39.007812 16.785156 39.082031 17.046875 39.148438 17.316406 C 38.757812 18.871094 37.804688 20.226562 36.472656 21.121094 C 36.445312 20.378906 36.371094 19.644531 36.246094 18.914062 C 36.09375 18.964844 35.929688 18.964844 35.773438 18.914062 C 35.925781 19.757812 36.007812 20.609375 36.023438 21.464844 C 35.230469 21.96875 34.378906 22.378906 33.488281 22.679688 C 33.488281 22.835938 33.488281 22.996094 33.488281 23.152344 C 34.367188 22.847656 35.210938 22.445312 36 21.953125 C 35.984375 23.285156 35.707031 24.597656 35.183594 25.824219 L 35.59375 26.078125 C 36.199219 24.683594 36.5 23.171875 36.472656 21.652344 C 37.917969 20.742188 38.992188 19.351562 39.511719 17.722656 Z M 39.511719 17.722656 "/>
<path style=" stroke:none;fill-rule:nonzero;fill:rgb(63.921569%,88.627451%,74.509804%);fill-opacity:1;" d="M 31.304688 17.445312 C 31.328125 17.621094 31.414062 17.785156 31.546875 17.902344 C 31.460938 16.972656 31.351562 16.050781 31.207031 15.15625 C 31.042969 15.335938 30.972656 15.582031 31.019531 15.816406 C 31.109375 16.261719 31.214844 16.828125 31.304688 17.445312 Z M 31.304688 17.445312 "/>
<path style=" stroke:none;fill-rule:nonzero;fill:rgb(36.470588%,52.54902%,84.705882%);fill-opacity:1;" d="M 20.453125 21.644531 C 20.453125 24.816406 21.472656 26.984375 22.957031 28.394531 C 26.199219 30.902344 30.726562 30.902344 33.96875 28.394531 C 35.46875 27.015625 36.457031 24.847656 36.472656 21.644531 C 36.832031 21.394531 37.175781 21.117188 37.5 20.820312 C 37.5 20.625 37.5 20.429688 37.5 20.234375 C 37.183594 20.550781 36.847656 20.839844 36.488281 21.105469 C 36.410156 19.046875 35.972656 17.015625 35.203125 15.105469 C 34.914062 14.796875 34.597656 14.511719 34.265625 14.25 C 35.351562 16.488281 35.941406 18.933594 36 21.421875 C 34.675781 22.257812 33.210938 22.847656 31.671875 23.152344 C 31.671875 22.648438 31.710938 22.132812 31.710938 21.59375 C 31.710938 18.492188 31.347656 15.40625 30.628906 12.390625 L 30.128906 12.277344 C 30.882812 15.324219 31.257812 18.453125 31.246094 21.59375 C 31.246094 22.183594 31.246094 22.726562 31.199219 23.25 C 29.375 23.574219 27.511719 23.574219 25.6875 23.25 C 25.6875 22.734375 25.640625 22.183594 25.640625 21.59375 C 25.628906 18.453125 26.007812 15.324219 26.761719 12.277344 L 26.257812 12.390625 C 25.539062 15.40625 25.175781 18.492188 25.175781 21.59375 C 25.175781 22.140625 25.175781 22.65625 25.214844 23.152344 C 23.679688 22.847656 22.210938 22.257812 20.886719 21.421875 C 20.957031 18.929688 21.5625 16.484375 22.65625 14.25 C 22.335938 14.515625 22.03125 14.800781 21.75 15.105469 C 20.980469 17.015625 20.546875 19.046875 20.46875 21.105469 C 20.105469 20.847656 19.765625 20.5625 19.449219 20.25 C 19.449219 20.445312 19.449219 20.640625 19.449219 20.835938 C 19.765625 21.128906 20.097656 21.398438 20.453125 21.644531 Z M 31.65625 23.609375 C 33.191406 23.3125 34.660156 22.753906 36 21.953125 C 35.878906 26.40625 33.539062 29.316406 29.753906 29.859375 C 30.796875 28.90625 31.5 26.738281 31.65625 23.609375 Z M 28.5 23.933594 C 29.414062 23.933594 30.328125 23.855469 31.230469 23.699219 C 30.929688 28.273438 29.632812 29.953125 28.5 29.953125 C 27.367188 29.953125 26.070312 28.265625 25.769531 23.699219 C 26.671875 23.855469 27.585938 23.933594 28.5 23.933594 Z M 25.304688 23.609375 C 25.5 26.738281 26.167969 28.90625 27.210938 29.851562 C 23.421875 29.316406 21.082031 26.398438 20.960938 21.945312 C 22.289062 22.742188 23.746094 23.308594 25.265625 23.609375 Z M 25.304688 23.609375 "/>
<path style=" stroke:none;fill-rule:nonzero;fill:rgb(55.294118%,78.823529%,65.882353%);fill-opacity:1;" d="M 31.304688 17.445312 C 31.328125 17.621094 31.414062 17.785156 31.546875 17.902344 C 31.460938 16.980469 31.351562 16.058594 31.207031 15.164062 C 31.042969 15.34375 30.976562 15.589844 31.027344 15.824219 C 31.109375 16.261719 31.214844 16.828125 31.304688 17.445312 Z M 31.304688 17.445312 "/>
<path style=" stroke:none;fill-rule:nonzero;fill:rgb(55.294118%,78.823529%,65.882353%);fill-opacity:1;" d="M 35.59375 26.070312 C 36.203125 24.675781 36.5 23.164062 36.472656 21.644531 C 36.832031 21.394531 37.175781 21.117188 37.5 20.820312 C 37.5 20.65625 37.5 20.488281 37.5 20.324219 L 37.5 20.25 C 37.1875 20.566406 36.851562 20.855469 36.496094 21.121094 C 36.46875 20.378906 36.394531 19.644531 36.269531 18.914062 C 36.113281 18.96875 35.945312 18.96875 35.789062 18.914062 C 35.941406 19.757812 36.023438 20.609375 36.039062 21.464844 C 35.242188 21.96875 34.394531 22.378906 33.503906 22.679688 C 33.503906 22.835938 33.503906 22.996094 33.503906 23.152344 C 34.375 22.84375 35.214844 22.441406 36 21.953125 C 35.984375 23.285156 35.707031 24.597656 35.183594 25.824219 Z M 35.59375 26.070312 "/>
<path style="fill:none;stroke-width:0.5;stroke-linecap:butt;stroke-linejoin:miter;stroke:rgb(63.921569%,88.627451%,74.509804%);stroke-opacity:1;stroke-miterlimit:10;" d="M 47.697917 37.3125 C 52.177083 33.4375 53.942708 27.28125 52.197917 21.619792 C 51.213542 22.963542 50.010417 24.130208 48.640625 25.078125 C 48.354167 25.286458 47.984375 25.328125 47.661458 25.192708 C 47.338542 25.057292 47.109375 24.760417 47.0625 24.411458 C 46.916667 23.432292 46.645833 22.479167 46.260417 21.567708 C 46.171875 21.411458 46.036458 21.28125 45.880208 21.1875 L 43.567708 19.869792 C 43.322917 19.71875 43.026042 19.682292 42.75 19.770833 C 42.557292 19.828125 42.364583 19.875 42.171875 19.911458 C 41.901042 19.953125 41.661458 20.109375 41.510417 20.338542 C 41.354167 20.5625 41.302083 20.84375 41.359375 21.109375 C 41.46875 21.6875 41.609375 22.447917 41.729167 23.270833 C 41.760417 23.5625 41.916667 23.822917 42.15625 23.989583 C 42.395833 24.151042 42.697917 24.203125 42.979167 24.130208 C 43.270833 24.03125 43.59375 24.072917 43.854167 24.239583 C 44.109375 24.411458 44.276042 24.692708 44.302083 25 C 44.635417 27.421875 44.71875 29.869792 44.552083 32.3125 C 44.494792 32.708333 44.682292 33.104167 45.03125 33.3125 L 47.578125 34.880208 C 47.953125 35.119792 48.125 35.572917 48 36 Z M 47.697917 37.3125 " transform="matrix(0.75,0,0,0.75,0,0)"/>
<path style=" stroke:none;fill-rule:nonzero;fill:rgb(55.294118%,78.823529%,65.882353%);fill-opacity:1;" d="M 26.878906 23.40625 C 26.878906 23.558594 26.878906 23.707031 26.925781 23.851562 C 27.425781 23.902344 27.9375 23.925781 28.425781 23.925781 C 28.914062 23.925781 29.460938 23.925781 29.960938 23.851562 C 29.960938 23.707031 29.960938 23.558594 30 23.40625 C 28.949219 23.519531 27.886719 23.519531 26.835938 23.40625 Z M 26.878906 23.40625 "/>
<path style="fill:none;stroke-width:0.5;stroke-linecap:butt;stroke-linejoin:miter;stroke:rgb(63.921569%,88.627451%,74.509804%);stroke-opacity:1;stroke-miterlimit:10;" d="M 38.161458 34 C 38.328125 34.276042 38.640625 34.421875 38.958333 34.380208 C 39.28125 34.338542 39.541667 34.109375 39.630208 33.802083 C 39.984375 32.453125 40.15625 31.0625 40.140625 29.671875 C 40.145833 28.614583 40.052083 27.567708 39.859375 26.53125 C 39.807292 26.265625 39.635417 26.041667 39.401042 25.916667 C 39.161458 25.786458 38.880208 25.776042 38.630208 25.880208 C 37.984375 26.140625 37.3125 26.333333 36.630208 26.458333 C 36.255208 26.53125 35.963542 26.838542 35.921875 27.21875 C 35.8125 28.03125 35.755208 28.84375 35.760417 29.661458 C 35.755208 30.729167 35.854167 31.796875 36.052083 32.848958 C 36.114583 33.197917 36.395833 33.46875 36.75 33.510417 L 37.552083 33.598958 C 37.807292 33.630208 38.03125 33.776042 38.161458 34 Z M 38.161458 34 " transform="matrix(0.75,0,0,0.75,0,0)"/>
<path style=" stroke:none;fill-rule:nonzero;fill:rgb(63.921569%,88.627451%,74.509804%);fill-opacity:1;" d="M 22.003906 26.347656 C 21.304688 24.988281 20.933594 23.480469 20.925781 21.953125 C 21.746094 22.445312 22.617188 22.84375 23.527344 23.136719 C 23.527344 22.972656 23.527344 22.816406 23.527344 22.664062 C 22.613281 22.359375 21.738281 21.945312 20.925781 21.425781 C 20.980469 18.046875 22.050781 14.761719 24 12 L 23.820312 11.476562 C 21.722656 14.265625 20.539062 17.636719 20.4375 21.128906 C 19.105469 20.234375 18.152344 18.878906 17.761719 17.324219 C 18.507812 14.261719 20.582031 11.691406 23.421875 10.320312 L 23.28125 9.898438 C 21.6875 10.667969 20.296875 11.800781 19.222656 13.207031 C 18.285156 14.566406 17.664062 16.117188 17.398438 17.746094 C 17.910156 19.359375 18.972656 20.746094 20.398438 21.660156 C 20.355469 23.402344 20.757812 25.128906 21.570312 26.671875 Z M 22.003906 26.347656 "/>
<path style=" stroke:none;fill-rule:nonzero;fill:rgb(55.294118%,78.823529%,65.882353%);fill-opacity:1;" d="M 21.75 15.113281 C 20.980469 17.023438 20.546875 19.054688 20.46875 21.113281 C 20.109375 20.851562 19.769531 20.5625 19.453125 20.25 C 19.453125 20.441406 19.441406 20.632812 19.417969 20.828125 C 19.746094 21.125 20.09375 21.402344 20.460938 21.652344 C 20.414062 23.394531 20.816406 25.121094 21.628906 26.664062 L 22.011719 26.355469 C 21.3125 24.996094 20.941406 23.488281 20.933594 21.960938 C 21.753906 22.453125 22.625 22.847656 23.535156 23.144531 C 23.535156 22.980469 23.535156 22.824219 23.535156 22.671875 C 22.621094 22.367188 21.746094 21.953125 20.933594 21.433594 C 20.984375 18.945312 21.570312 16.496094 22.648438 14.25 C 22.332031 14.515625 22.03125 14.804688 21.75 15.113281 Z M 21.75 15.113281 "/>
<path style=" stroke:none;fill-rule:nonzero;fill:rgb(58.823529%,72.156863%,91.764706%);fill-opacity:1;" d="M 18.75 20.136719 C 18.75 19.933594 18.75 19.734375 18.789062 19.53125 L 18.789062 19.5 C 18.292969 18.859375 17.949219 18.117188 17.773438 17.324219 C 18.800781 13.171875 22.195312 10.027344 26.414062 9.324219 C 25.078125 10.035156 23.953125 11.089844 23.160156 12.382812 C 23.484375 12.164062 23.824219 11.96875 24.171875 11.789062 C 25 10.640625 26.183594 9.796875 27.539062 9.390625 C 27.191406 9.867188 26.917969 10.390625 26.730469 10.949219 L 27.234375 10.875 C 27.621094 9.878906 28.042969 9.285156 28.460938 9.285156 C 28.882812 9.285156 29.300781 9.886719 29.691406 10.875 L 30.195312 10.949219 C 30.003906 10.394531 29.734375 9.871094 29.386719 9.398438 C 30.746094 9.804688 31.9375 10.648438 32.765625 11.804688 C 33.105469 11.976562 33.433594 12.167969 33.75 12.375 C 32.957031 11.085938 31.835938 10.03125 30.503906 9.324219 C 32.765625 9.726562 34.847656 10.824219 36.457031 12.464844 L 36.816406 12.1875 C 34.886719 10.210938 32.316406 8.988281 29.566406 8.746094 C 28.816406 8.695312 28.0625 8.695312 27.316406 8.746094 C 24.160156 9.019531 21.257812 10.585938 19.296875 13.074219 C 18.3125 14.457031 17.65625 16.050781 17.386719 17.730469 C 17.652344 18.625 18.121094 19.449219 18.75 20.136719 Z M 18.75 20.136719 "/>
<path style=" stroke:none;fill-rule:nonzero;fill:rgb(72.156863%,95.686275%,81.568627%);fill-opacity:1;" d="M 23.445312 10.296875 L 23.296875 9.878906 C 21.761719 10.621094 20.414062 11.703125 19.359375 13.042969 L 19.320312 13.09375 L 19.175781 13.304688 C 19.082031 13.445312 18.988281 13.585938 18.898438 13.734375 L 18.726562 14.023438 C 18.652344 14.160156 18.578125 14.300781 18.503906 14.445312 C 18.425781 14.585938 18.328125 14.78125 18.253906 14.960938 C 18.179688 15.140625 18.128906 15.253906 18.066406 15.398438 C 18.007812 15.539062 17.960938 15.667969 17.917969 15.800781 C 17.871094 15.9375 17.8125 16.125 17.761719 16.289062 C 17.707031 16.453125 17.648438 16.6875 17.59375 16.898438 C 17.542969 17.109375 17.535156 17.144531 17.511719 17.273438 C 17.488281 17.398438 17.453125 17.574219 17.421875 17.730469 C 17.679688 18.621094 18.132812 19.445312 18.75 20.136719 C 18.75 19.941406 18.75 19.738281 18.789062 19.539062 L 18.789062 19.5 C 18.296875 18.859375 17.949219 18.121094 17.773438 17.332031 C 18.515625 14.257812 20.597656 11.675781 23.445312 10.296875 Z M 23.445312 10.296875 "/>
<path style=" stroke:none;fill-rule:nonzero;fill:rgb(63.921569%,88.627451%,74.509804%);fill-opacity:1;" d="M 23.84375 11.453125 C 23.601562 11.742188 23.375 12.050781 23.160156 12.382812 L 23.296875 12.300781 L 23.542969 12.148438 L 24 11.894531 Z M 23.84375 11.453125 "/>
<path style="fill:none;stroke-width:0.5;stroke-linecap:butt;stroke-linejoin:miter;stroke:rgb(63.921569%,88.627451%,74.509804%);stroke-opacity:1;stroke-miterlimit:10;" d="M 23 26 C 22.994792 29.994792 24.59375 33.817708 27.4375 36.619792 L 30.588542 34.078125 C 31.229167 33.588542 31.5625 32.802083 31.46875 32 C 31.265625 30.619792 31.317708 29.213542 31.609375 27.848958 C 31.786458 27.15625 31.640625 26.421875 31.208333 25.848958 L 31 25.598958 C 30.5 24.947917 30.380208 24.083333 30.6875 23.317708 C 31.1875 22.098958 31.78125 20.921875 32.46875 19.802083 C 32.848958 19.203125 32.932292 18.46875 32.697917 17.802083 L 30.96875 12.802083 C 26.067708 15.380208 23 20.463542 23 26 Z M 23 26 " transform="matrix(0.75,0,0,0.75,0,0)"/>
<path style=" stroke:none;fill-rule:nonzero;fill:rgb(72.156863%,95.686275%,81.568627%);fill-opacity:1;" d="M 38.925781 15.539062 L 38.648438 15.757812 C 38.855469 16.261719 39.023438 16.78125 39.148438 17.308594 C 38.976562 18.105469 38.628906 18.855469 38.128906 19.5 C 38.128906 19.714844 38.144531 19.933594 38.175781 20.160156 C 38.789062 19.464844 39.246094 18.644531 39.503906 17.753906 C 39.386719 16.996094 39.191406 16.253906 38.925781 15.539062 Z M 38.925781 15.539062 "/>
<path style=" stroke:none;fill-rule:nonzero;fill:rgb(58.823529%,72.156863%,91.764706%);fill-opacity:1;" d="M 28.890625 30.238281 C 27.175781 30.316406 25.46875 29.9375 23.949219 29.136719 C 26.765625 30.839844 30.296875 30.8125 33.089844 29.070312 C 31.796875 29.777344 30.359375 30.175781 28.890625 30.238281 Z M 28.890625 30.238281 "/>
<path style="fill:none;stroke-width:2;stroke-linecap:round;stroke-linejoin:round;stroke:rgb(1.568627%,7.058824%,33.72549%);stroke-opacity:1;stroke-miterlimit:4;" d="M 52.869792 26.020833 C 52.869792 34.260417 46.1875 40.9375 37.947917 40.9375 C 29.708333 40.9375 23.03125 34.260417 23.03125 26.020833 C 23.03125 17.78125 29.708333 11.098958 37.947917 11.098958 C 46.1875 11.098958 52.869792 17.78125 52.869792 26.020833 Z M 52.869792 26.020833 " transform="matrix(0.75,0,0,0.75,0,0)"/>
<path style="fill-rule:nonzero;fill:rgb(40%,68.627451%,51.372549%);fill-opacity:1;stroke-width:0.5;stroke-linecap:butt;stroke-linejoin:miter;stroke:rgb(63.921569%,88.627451%,74.509804%);stroke-opacity:1;stroke-miterlimit:10;" d="M 35.958333 22.760417 C 35.958333 23.041667 35.729167 23.270833 35.447917 23.270833 C 35.166667 23.270833 34.9375 23.041667 34.9375 22.760417 C 34.9375 22.479167 35.166667 22.25 35.447917 22.25 C 35.729167 22.25 35.958333 22.479167 35.958333 22.760417 Z M 35.958333 22.760417 " transform="matrix(0.75,0,0,0.75,0,0)"/>
<path style=" stroke:none;fill-rule:nonzero;fill:rgb(76.470588%,88.627451%,95.686275%);fill-opacity:1;" d="M 12.996094 33.105469 L 23.601562 33.105469 C 25.039062 33.105469 26.203125 34.269531 26.203125 35.707031 L 26.203125 42 C 26.203125 43.4375 25.039062 44.601562 23.601562 44.601562 L 22.222656 44.601562 C 22.148438 44.597656 22.082031 44.640625 22.050781 44.703125 C 22.019531 44.769531 22.03125 44.847656 22.078125 44.902344 C 22.234375 45.09375 22.417969 45.265625 22.621094 45.40625 C 22.671875 45.441406 22.695312 45.507812 22.683594 45.570312 C 22.671875 45.632812 22.621094 45.683594 22.558594 45.699219 C 21.65625 45.925781 20.699219 45.636719 20.070312 44.949219 C 19.878906 44.730469 19.609375 44.601562 19.320312 44.585938 L 13.019531 44.585938 C 12.328125 44.59375 11.664062 44.324219 11.171875 43.839844 C 10.679688 43.351562 10.398438 42.691406 10.394531 42 L 10.394531 35.707031 C 10.394531 34.269531 11.558594 33.105469 12.996094 33.105469 Z M 12.996094 33.105469 "/>
<path style=" stroke:none;fill-rule:nonzero;fill:rgb(71.764706%,83.137255%,91.764706%);fill-opacity:1;" d="M 12.996094 33.105469 L 23.601562 33.105469 C 25.039062 33.105469 26.203125 34.269531 26.203125 35.707031 L 26.203125 42 C 26.203125 43.4375 25.039062 44.601562 23.601562 44.601562 L 22.222656 44.601562 C 22.148438 44.597656 22.082031 44.640625 22.050781 44.703125 C 22.019531 44.769531 22.03125 44.847656 22.078125 44.902344 C 22.234375 45.09375 22.417969 45.265625 22.621094 45.40625 C 22.671875 45.441406 22.695312 45.507812 22.683594 45.570312 C 22.671875 45.632812 22.621094 45.683594 22.558594 45.699219 C 21.65625 45.925781 20.699219 45.636719 20.070312 44.949219 C 19.878906 44.734375 19.609375 44.605469 19.320312 44.59375 L 18.300781 44.59375 L 18.300781 38.339844 C 18.300781 37.351562 17.785156 36.433594 16.941406 35.917969 L 12.441406 33.15625 C 12.625 33.121094 12.8125 33.101562 12.996094 33.105469 Z M 12.996094 33.105469 "/>
<path style=" stroke:none;fill-rule:nonzero;fill:rgb(41.568627%,93.72549%,65.098039%);fill-opacity:1;" d="M 11.707031 35.960938 L 11.707031 37.761719 C 11.707031 38.210938 11.34375 38.574219 10.898438 38.574219 L 10.394531 38.574219 L 10.394531 35.707031 C 10.394531 34.269531 11.558594 33.105469 12.996094 33.105469 L 23.601562 33.105469 C 24.675781 33.105469 25.636719 33.765625 26.023438 34.761719 C 25.679688 34.59375 25.300781 34.503906 24.914062 34.5 L 13.164062 34.5 C 12.773438 34.5 12.402344 34.65625 12.132812 34.929688 C 11.859375 35.203125 11.707031 35.574219 11.707031 35.960938 Z M 11.707031 35.960938 "/>
<path style=" stroke:none;fill-rule:nonzero;fill:rgb(86.27451%,95.294118%,100%);fill-opacity:1;" d="M 24.21875 33.1875 L 24.523438 33.285156 L 24.683594 33.34375 C 24.777344 33.390625 24.867188 33.441406 24.953125 33.496094 L 25.078125 33.570312 C 25.191406 33.648438 25.296875 33.730469 25.394531 33.824219 L 25.550781 33.996094 L 25.679688 34.148438 C 25.734375 34.214844 25.777344 34.28125 25.824219 34.359375 L 25.90625 34.507812 C 25.949219 34.585938 25.988281 34.671875 26.023438 34.753906 C 25.679688 34.589844 25.300781 34.5 24.914062 34.5 L 14.648438 34.5 L 12.457031 33.15625 L 12.515625 33.15625 C 12.675781 33.128906 12.835938 33.113281 12.996094 33.113281 L 23.601562 33.113281 C 23.761719 33.113281 23.917969 33.128906 24.074219 33.15625 Z M 24.21875 33.1875 "/>
<path style=" stroke:none;fill-rule:nonzero;fill:rgb(86.27451%,95.294118%,100%);fill-opacity:1;" d="M 10.898438 39.523438 C 11.34375 39.523438 11.707031 39.886719 11.707031 40.335938 L 11.707031 43.386719 C 11.710938 43.710938 11.773438 44.03125 11.894531 44.332031 C 10.980469 43.90625 10.394531 42.988281 10.394531 41.976562 L 10.394531 39.523438 Z M 10.898438 39.523438 "/>
<path style=" stroke:none;fill-rule:nonzero;fill:rgb(71.764706%,83.137255%,91.764706%);fill-opacity:1;" d="M 12.996094 33.105469 C 11.558594 33.105469 10.394531 34.269531 10.394531 35.707031 L 10.394531 42 L 16.019531 42 C 17.457031 42 18.621094 40.835938 18.621094 39.398438 L 18.621094 33.105469 Z M 12.996094 33.105469 "/>
<path style=" stroke:none;fill-rule:nonzero;fill:rgb(76.470588%,88.627451%,95.686275%);fill-opacity:1;" d="M 11.707031 40.34375 C 11.707031 39.894531 11.34375 39.53125 10.898438 39.53125 L 10.394531 39.53125 L 10.394531 42 L 11.714844 42 Z M 11.707031 40.34375 "/>
<path style=" stroke:none;fill-rule:nonzero;fill:rgb(53.333333%,70.980392%,81.960784%);fill-opacity:1;" d="M 12.996094 32.585938 C 11.558594 32.585938 10.394531 33.753906 10.394531 35.191406 L 10.394531 41.46875 L 16.019531 41.46875 C 17.457031 41.46875 18.621094 40.300781 18.621094 38.863281 L 18.621094 32.585938 Z M 12.996094 32.585938 "/>
<path style=" stroke:none;fill-rule:nonzero;fill:rgb(34.901961%,58.431373%,69.803922%);fill-opacity:1;" d="M 15.890625 38.953125 C 15.890625 39.199219 15.695312 39.398438 15.449219 39.398438 C 15.207031 39.398438 15.007812 39.199219 15.007812 38.953125 C 15.007812 38.710938 15.207031 38.511719 15.449219 38.511719 C 15.695312 38.511719 15.890625 38.710938 15.890625 38.953125 Z M 15.890625 38.953125 "/>
<path style=" stroke:none;fill-rule:nonzero;fill:rgb(34.901961%,58.431373%,69.803922%);fill-opacity:1;" d="M 18.742188 38.953125 C 18.742188 39.199219 18.542969 39.398438 18.300781 39.398438 C 18.054688 39.398438 17.859375 39.199219 17.859375 38.953125 C 17.859375 38.710938 18.054688 38.511719 18.300781 38.511719 C 18.542969 38.511719 18.742188 38.710938 18.742188 38.953125 Z M 18.742188 38.953125 "/>
<path style=" stroke:none;fill-rule:nonzero;fill:rgb(34.901961%,58.431373%,69.803922%);fill-opacity:1;" d="M 21.59375 38.953125 C 21.59375 39.199219 21.394531 39.398438 21.148438 39.398438 C 20.90625 39.398438 20.707031 39.199219 20.707031 38.953125 C 20.707031 38.710938 20.90625 38.511719 21.148438 38.511719 C 21.394531 38.511719 21.59375 38.710938 21.59375 38.953125 Z M 21.59375 38.953125 "/>
<path style="fill:none;stroke-width:2;stroke-linecap:round;stroke-linejoin:round;stroke:rgb(1.568627%,7.058824%,33.72549%);stroke-opacity:1;stroke-miterlimit:4;" d="M 17.328125 44.140625 L 31.46875 44.140625 C 33.385417 44.140625 34.9375 45.692708 34.9375 47.609375 L 34.9375 56 C 34.9375 57.916667 33.385417 59.46875 31.46875 59.46875 L 29.630208 59.46875 C 29.53125 59.463542 29.442708 59.520833 29.401042 59.604167 C 29.359375 59.692708 29.375 59.796875 29.4375 59.869792 C 29.645833 60.125 29.890625 60.354167 30.161458 60.541667 C 30.229167 60.588542 30.260417 60.677083 30.244792 60.760417 C 30.229167 60.84375 30.161458 60.911458 30.078125 60.932292 C 28.875 61.234375 27.598958 60.848958 26.760417 59.932292 C 26.505208 59.640625 26.145833 59.46875 25.760417 59.447917 L 17.359375 59.447917 C 16.4375 59.458333 15.552083 59.098958 14.895833 58.453125 C 14.239583 57.802083 13.864583 56.921875 13.859375 56 L 13.859375 47.609375 C 13.859375 45.692708 15.411458 44.140625 17.328125 44.140625 Z M 17.328125 44.140625 " transform="matrix(0.75,0,0,0.75,0,0)"/>
<path style=" stroke:none;fill-rule:nonzero;fill:rgb(32.54902%,87.843137%,58.823529%);fill-opacity:1;" d="M 15.457031 29.085938 L 4.851562 29.085938 C 4.160156 29.085938 3.496094 29.359375 3.007812 29.851562 C 2.519531 30.339844 2.246094 31.003906 2.25 31.695312 L 2.25 37.972656 C 2.25 39.410156 3.414062 40.574219 4.851562 40.574219 L 6.234375 40.574219 C 6.304688 40.570312 6.371094 40.613281 6.402344 40.675781 C 6.433594 40.742188 6.421875 40.820312 6.375 40.875 C 6.21875 41.066406 6.039062 41.238281 5.835938 41.378906 C 5.785156 41.414062 5.757812 41.480469 5.773438 41.542969 C 5.785156 41.605469 5.832031 41.65625 5.894531 41.671875 C 6.800781 41.898438 7.757812 41.609375 8.386719 40.921875 C 8.574219 40.703125 8.847656 40.574219 9.136719 40.558594 L 15.433594 40.558594 C 16.871094 40.558594 18.039062 39.394531 18.039062 37.957031 L 18.039062 31.695312 C 18.042969 30.261719 16.890625 29.097656 15.457031 29.085938 Z M 15.457031 29.085938 "/>
<path style=" stroke:none;fill-rule:nonzero;fill:rgb(41.568627%,93.72549%,65.098039%);fill-opacity:1;" d="M 16.746094 31.941406 L 16.746094 33.75 C 16.746094 34.199219 17.109375 34.558594 17.558594 34.558594 L 18.058594 34.558594 L 18.058594 31.695312 C 18.058594 30.257812 16.894531 29.09375 15.457031 29.09375 L 4.851562 29.09375 C 3.785156 29.097656 2.824219 29.753906 2.4375 30.75 C 2.78125 30.585938 3.15625 30.496094 3.539062 30.496094 L 15.292969 30.496094 C 16.09375 30.496094 16.742188 31.140625 16.746094 31.941406 Z M 16.746094 31.941406 "/>
<path style=" stroke:none;fill-rule:nonzero;fill:rgb(39.607843%,82.352941%,85.882353%);fill-opacity:1;" d="M 12.996094 33.105469 C 11.558594 33.105469 10.394531 34.269531 10.394531 35.707031 L 10.394531 40.574219 L 15.457031 40.574219 C 16.894531 40.574219 18.058594 39.410156 18.058594 37.972656 L 18.058594 33.105469 Z M 12.996094 33.105469 "/>
<path style=" stroke:none;fill-rule:nonzero;fill:rgb(32.941176%,80.392157%,82.745098%);fill-opacity:1;" d="M 13.710938 34.5 C 12.605469 34.5 11.707031 35.398438 11.707031 36.503906 L 11.707031 40.574219 L 15.457031 40.574219 C 16.894531 40.574219 18.058594 39.410156 18.058594 37.972656 L 18.058594 34.5 Z M 13.710938 34.5 "/>
<path style=" stroke:none;fill-rule:nonzero;fill:rgb(25.490196%,80.784314%,63.529412%);fill-opacity:1;" d="M 15.457031 29.085938 L 4.851562 29.085938 C 4.160156 29.085938 3.496094 29.359375 3.007812 29.851562 C 2.519531 30.339844 2.246094 31.003906 2.25 31.695312 L 2.25 37.972656 C 2.25 39.410156 3.414062 40.574219 4.851562 40.574219 L 6.234375 40.574219 C 6.304688 40.570312 6.371094 40.613281 6.402344 40.675781 C 6.433594 40.742188 6.421875 40.820312 6.375 40.875 C 6.21875 41.066406 6.039062 41.238281 5.835938 41.378906 C 5.785156 41.414062 5.757812 41.480469 5.773438 41.542969 C 5.785156 41.605469 5.832031 41.65625 5.894531 41.671875 C 6.800781 41.898438 7.757812 41.609375 8.386719 40.921875 C 8.578125 40.707031 8.847656 40.578125 9.136719 40.566406 L 10.132812 40.566406 L 10.132812 34.328125 C 10.132812 33.339844 10.648438 32.421875 11.488281 31.90625 L 15.988281 29.144531 C 15.816406 29.105469 15.636719 29.085938 15.457031 29.085938 Z M 15.457031 29.085938 "/>
<path style=" stroke:none;fill-rule:nonzero;fill:rgb(49.411765%,89.803922%,90.980392%);fill-opacity:1;" d="M 16.746094 33.75 C 16.746094 34.199219 17.109375 34.558594 17.558594 34.558594 L 18.058594 34.558594 L 18.058594 33.105469 L 16.746094 33.105469 Z M 16.746094 33.75 "/>
<path style=" stroke:none;fill-rule:nonzero;fill:rgb(26.666667%,61.960784%,80%);fill-opacity:1;" d="M 18.058594 37.972656 L 18.058594 32.601562 L 12.996094 32.601562 C 11.28125 32.601562 9.890625 33.992188 9.890625 35.707031 L 9.890625 40.574219 L 15.457031 40.574219 C 16.894531 40.574219 18.058594 39.410156 18.058594 37.972656 Z M 10.890625 35.722656 C 10.890625 34.558594 11.832031 33.613281 12.996094 33.613281 L 17.566406 33.613281 L 17.566406 37.988281 C 17.566406 39.152344 16.621094 40.09375 15.457031 40.09375 L 10.890625 40.09375 Z M 10.890625 35.722656 "/>
<path style=" stroke:none;fill-rule:nonzero;fill:rgb(32.54902%,87.843137%,58.823529%);fill-opacity:1;" d="M 4.238281 29.167969 L 3.929688 29.25 L 3.75 29.324219 C 3.65625 29.371094 3.566406 29.417969 3.480469 29.476562 L 3.351562 29.550781 C 3.242188 29.625 3.136719 29.710938 3.039062 29.804688 C 2.984375 29.859375 2.933594 29.917969 2.878906 29.976562 L 2.753906 30.128906 C 2.699219 30.195312 2.65625 30.261719 2.609375 30.335938 L 2.527344 30.488281 C 2.484375 30.566406 2.441406 30.652344 2.40625 30.734375 C 2.75 30.570312 3.128906 30.480469 3.511719 30.480469 L 13.785156 30.480469 L 15.976562 29.136719 L 15.914062 29.136719 C 15.757812 29.109375 15.597656 29.09375 15.433594 29.09375 L 4.851562 29.09375 C 4.695312 29.09375 4.535156 29.109375 4.378906 29.136719 Z M 4.238281 29.167969 "/>
<path style=" stroke:none;fill-rule:nonzero;fill:rgb(39.607843%,82.352941%,85.882353%);fill-opacity:1;" d="M 17.558594 35.511719 C 17.109375 35.511719 16.746094 35.875 16.746094 36.324219 L 16.746094 39.375 C 16.746094 39.699219 16.679688 40.019531 16.558594 40.320312 C 17.472656 39.890625 18.058594 38.972656 18.058594 37.964844 L 18.058594 35.511719 Z M 17.558594 35.511719 "/>
<path style="fill:none;stroke-width:2;stroke-linecap:round;stroke-linejoin:round;stroke:rgb(1.568627%,7.058824%,33.72549%);stroke-opacity:1;stroke-miterlimit:4;" d="M 20.609375 38.78125 L 6.46875 38.78125 C 5.546875 38.78125 4.661458 39.145833 4.010417 39.802083 C 3.359375 40.453125 2.994792 41.338542 3 42.260417 L 3 50.630208 C 3 52.546875 4.552083 54.098958 6.46875 54.098958 L 8.3125 54.098958 C 8.40625 54.09375 8.494792 54.151042 8.536458 54.234375 C 8.578125 54.322917 8.5625 54.427083 8.5 54.5 C 8.291667 54.755208 8.052083 54.984375 7.78125 55.171875 C 7.713542 55.21875 7.677083 55.307292 7.697917 55.390625 C 7.713542 55.473958 7.776042 55.541667 7.859375 55.5625 C 9.067708 55.864583 10.34375 55.479167 11.182292 54.5625 C 11.432292 54.270833 11.796875 54.098958 12.182292 54.078125 L 20.578125 54.078125 C 22.494792 54.078125 24.052083 52.526042 24.052083 50.609375 L 24.052083 42.260417 C 24.057292 40.348958 22.520833 38.796875 20.609375 38.78125 Z M 20.609375 38.78125 " transform="matrix(0.75,0,0,0.75,0,0)"/>
<path style=" stroke:none;fill-rule:nonzero;fill:rgb(3.921569%,52.941176%,52.941176%);fill-opacity:1;" d="M 7.753906 34.988281 C 7.753906 35.230469 7.558594 35.429688 7.3125 35.429688 C 7.066406 35.429688 6.871094 35.230469 6.871094 34.988281 C 6.871094 34.742188 7.066406 34.546875 7.3125 34.546875 C 7.558594 34.546875 7.753906 34.742188 7.753906 34.988281 Z M 7.753906 34.988281 "/>
<path style=" stroke:none;fill-rule:nonzero;fill:rgb(3.921569%,52.941176%,52.941176%);fill-opacity:1;" d="M 10.597656 34.988281 C 10.597656 35.230469 10.398438 35.429688 10.15625 35.429688 C 9.910156 35.429688 9.710938 35.230469 9.710938 34.988281 C 9.710938 34.742188 9.910156 34.546875 10.15625 34.546875 C 10.398438 34.546875 10.597656 34.742188 10.597656 34.988281 Z M 10.597656 34.988281 "/>
<path style=" stroke:none;fill-rule:nonzero;fill:rgb(3.921569%,52.941176%,52.941176%);fill-opacity:1;" d="M 13.449219 34.988281 C 13.449219 35.230469 13.25 35.429688 13.003906 35.429688 C 12.761719 35.429688 12.5625 35.230469 12.5625 34.988281 C 12.5625 34.742188 12.761719 34.546875 13.003906 34.546875 C 13.25 34.546875 13.449219 34.742188 13.449219 34.988281 Z M 13.449219 34.988281 "/>
</g>
</svg>
