<?xml version="1.0" encoding="UTF-8"?>
<svg xmlns="http://www.w3.org/2000/svg" xmlns:xlink="http://www.w3.org/1999/xlink" width="31pt" height="26pt" viewBox="0 0 31 26" version="1.1">
<g id="surface1">
<path style=" stroke:none;fill-rule:nonzero;fill:rgb(0%,0%,0%);fill-opacity:1;" d="M 28.050781 8.558594 C 27.085938 8.558594 26.300781 9.359375 26.300781 10.34375 C 26.300781 11.328125 27.085938 12.128906 28.050781 12.128906 C 29.015625 12.128906 29.796875 11.328125 29.796875 10.34375 C 29.796875 9.359375 29.015625 8.558594 28.050781 8.558594 Z M 28.050781 8.558594 "/>
<path style=" stroke:none;fill-rule:nonzero;fill:rgb(0%,0%,0%);fill-opacity:1;" d="M 2.953125 8.558594 C 1.984375 8.558594 1.203125 9.359375 1.203125 10.34375 C 1.203125 11.328125 1.984375 12.128906 2.953125 12.128906 C 3.914062 12.128906 4.699219 11.328125 4.699219 10.34375 C 4.699219 9.359375 3.914062 8.558594 2.953125 8.558594 Z M 2.953125 8.558594 "/>
<path style=" stroke:none;fill-rule:nonzero;fill:rgb(0%,0%,0%);fill-opacity:1;" d="M 22.855469 5.3125 C 21.421875 5.3125 20.261719 6.503906 20.261719 7.96875 C 20.261719 9.433594 21.421875 10.625 22.855469 10.625 C 24.289062 10.625 25.457031 9.433594 25.457031 7.96875 C 25.457031 6.503906 24.289062 5.3125 22.855469 5.3125 Z M 22.855469 5.3125 "/>
<path style=" stroke:none;fill-rule:nonzero;fill:rgb(0%,0%,0%);fill-opacity:1;" d="M 30.917969 21.472656 L 27.960938 21.472656 L 27.960938 15.898438 C 27.960938 14.9375 27.683594 14.050781 27.242188 13.277344 C 27.503906 13.199219 27.769531 13.144531 28.050781 13.144531 C 29.628906 13.144531 30.917969 14.460938 30.917969 16.082031 Z M 30.917969 21.472656 "/>
<path style=" stroke:none;fill-rule:nonzero;fill:rgb(0%,0%,0%);fill-opacity:1;" d="M 8.144531 5.3125 C 6.710938 5.3125 5.542969 6.503906 5.542969 7.96875 C 5.542969 9.433594 6.710938 10.625 8.144531 10.625 C 9.574219 10.625 10.738281 9.433594 10.738281 7.96875 C 10.738281 6.503906 9.574219 5.3125 8.144531 5.3125 Z M 8.144531 5.3125 "/>
<path style=" stroke:none;fill-rule:nonzero;fill:rgb(0%,0%,0%);fill-opacity:1;" d="M 2.953125 13.144531 C 3.234375 13.144531 3.496094 13.199219 3.757812 13.277344 C 3.3125 14.050781 3.039062 14.9375 3.039062 15.898438 L 3.039062 21.472656 L 0.0820312 21.472656 L 0.0820312 16.082031 C 0.0820312 14.460938 1.371094 13.144531 2.953125 13.144531 Z M 2.953125 13.144531 "/>
<path style=" stroke:none;fill-rule:nonzero;fill:rgb(0%,0%,0%);fill-opacity:1;" d="M 15.5 0 C 13.382812 0 11.65625 1.761719 11.65625 3.929688 C 11.65625 6.09375 13.382812 7.859375 15.5 7.859375 C 17.617188 7.859375 19.34375 6.09375 19.34375 3.929688 C 19.34375 1.761719 17.617188 0 15.5 0 Z M 15.5 0 "/>
<path style=" stroke:none;fill-rule:nonzero;fill:rgb(0%,0%,0%);fill-opacity:1;" d="M 27.007812 23.546875 L 22.472656 23.546875 L 22.472656 15.066406 C 22.472656 13.902344 22.171875 12.816406 21.6875 11.84375 C 22.058594 11.730469 22.449219 11.652344 22.855469 11.652344 C 25.144531 11.652344 27.007812 13.558594 27.007812 15.898438 Z M 27.007812 23.546875 "/>
<path style=" stroke:none;fill-rule:nonzero;fill:rgb(0%,0%,0%);fill-opacity:1;" d="M 8.523438 15.066406 L 8.523438 23.546875 L 3.992188 23.546875 L 3.992188 15.898438 C 3.992188 13.554688 5.851562 11.652344 8.144531 11.652344 C 8.550781 11.652344 8.9375 11.730469 9.308594 11.84375 C 8.824219 12.816406 8.523438 13.898438 8.523438 15.066406 Z M 8.523438 15.066406 "/>
<path style=" stroke:none;fill-rule:nonzero;fill:rgb(0%,0%,0%);fill-opacity:1;" d="M 9.472656 26 L 21.523438 26 L 21.523438 15.066406 C 21.523438 11.667969 18.816406 8.90625 15.5 8.90625 C 12.175781 8.90625 9.472656 11.667969 9.472656 15.066406 Z M 9.472656 26 "/>
</g>
</svg>
