<?xml version="1.0" encoding="UTF-8"?>
<svg xmlns="http://www.w3.org/2000/svg" xmlns:xlink="http://www.w3.org/1999/xlink" width="24pt" height="24pt" viewBox="0 0 24 24" version="1.1">
<g id="surface1">
<path style=" stroke:none;fill-rule:nonzero;fill:rgb(0%,0%,0%);fill-opacity:1;" d="M 14.453125 23.835938 C 14.335938 23.839844 14.257812 23.851562 14.183594 23.851562 C 12.582031 23.851562 10.984375 23.84375 9.378906 23.855469 C 9.15625 23.855469 9.09375 23.792969 9.09375 23.570312 C 9.097656 19.835938 9.097656 16.101562 9.097656 12.371094 C 9.097656 12.273438 9.097656 12.171875 9.097656 12.046875 C 8.226562 12.046875 7.378906 12.046875 6.515625 12.046875 C 6.515625 10.714844 6.515625 9.40625 6.515625 8.0625 C 6.605469 8.0625 6.6875 8.0625 6.769531 8.0625 C 7.472656 8.0625 8.175781 8.058594 8.878906 8.066406 C 9.054688 8.066406 9.101562 8.015625 9.101562 7.84375 C 9.09375 6.796875 9.09375 5.746094 9.101562 4.703125 C 9.109375 3.96875 9.226562 3.257812 9.5625 2.597656 C 10.046875 1.664062 10.808594 1.058594 11.773438 0.683594 C 12.5625 0.375 13.390625 0.261719 14.226562 0.25 C 15.585938 0.230469 16.945312 0.238281 18.304688 0.234375 C 18.429688 0.234375 18.535156 0.230469 18.535156 0.40625 C 18.53125 1.695312 18.53125 2.984375 18.53125 4.273438 C 18.53125 4.289062 18.523438 4.304688 18.507812 4.363281 C 18.425781 4.363281 18.335938 4.363281 18.25 4.363281 C 17.40625 4.363281 16.5625 4.359375 15.71875 4.363281 C 15.230469 4.363281 14.835938 4.5625 14.585938 4.988281 C 14.511719 5.113281 14.464844 5.277344 14.464844 5.429688 C 14.453125 6.226562 14.464844 7.023438 14.457031 7.820312 C 14.457031 8.007812 14.511719 8.058594 14.695312 8.058594 C 15.867188 8.046875 17.039062 8.054688 18.210938 8.054688 C 18.304688 8.054688 18.394531 8.054688 18.554688 8.054688 C 18.390625 9.394531 18.230469 10.707031 18.066406 12.03125 C 16.847656 12.03125 15.660156 12.03125 14.453125 12.03125 C 14.453125 15.976562 14.453125 19.894531 14.453125 23.835938 Z M 14.453125 23.835938 "/>
</g>
</svg>
