<?xml version="1.0" encoding="UTF-8"?>
<svg xmlns="http://www.w3.org/2000/svg" xmlns:xlink="http://www.w3.org/1999/xlink" width="24pt" height="24pt" viewBox="0 0 24 24" version="1.1">
<g id="surface1">
<path style=" stroke:none;fill-rule:nonzero;fill:rgb(0%,0%,0%);fill-opacity:1;" d="M 23.898438 19.136719 L 23.78125 18.773438 C 23.496094 17.933594 22.570312 17.058594 21.71875 16.824219 L 18.5625 15.964844 C 17.707031 15.730469 16.488281 16.042969 15.863281 16.671875 L 14.71875 17.8125 C 10.570312 16.691406 7.320312 13.4375 6.199219 9.289062 L 7.339844 8.148438 C 7.964844 7.523438 8.28125 6.304688 8.046875 5.449219 L 7.1875 2.292969 C 6.953125 1.4375 6.074219 0.511719 5.234375 0.230469 L 4.875 0.109375 C 4.035156 -0.167969 2.835938 0.113281 2.207031 0.738281 L 0.5 2.449219 C 0.195312 2.75 0 3.621094 0 3.621094 C -0.0585938 9.042969 2.066406 14.265625 5.902344 18.101562 C 9.726562 21.929688 14.929688 24.050781 20.335938 24.003906 C 20.363281 24.003906 21.257812 23.8125 21.5625 23.507812 L 23.269531 21.800781 C 23.898438 21.175781 24.179688 19.976562 23.898438 19.136719 Z M 23.898438 19.136719 "/>
</g>
</svg>
